<svg xmlns="http://www.w3.org/2000/svg" xmlns:xlink="http://www.w3.org/1999/xlink" version="1.1" viewBox="0 0 933 216.5">
  <defs>
    <style>
      .air-shape {
        fill: url(#air-gradient);
      }
    </style>
    <linearGradient id="air-gradient" x1="462.9" y1="216.5" x2="462.9" y2="0" gradientTransform="translate(929.4) rotate(-180) scale(1 -1)" gradientUnits="userSpaceOnUse">
      <stop offset="0" stop-color="#d1e8ff"/>
      <stop offset=".6" stop-color="#edf6ff"/>
      <stop offset="1" stop-color="#fff"/>
    </linearGradient>
  </defs>
  <path class="air-shape" d="M46.8,0c27,1.5,49.1,12.4,74.4,17.6,51.7,11.7,107.4,17,159,29.5,11.1,2.5,22.2,5.1,33.3,7.6,74.1,16.7,152.8,28.4,230.9,35.7,10.5.7,35.6,3.8,39.8-1.9,1.1-3.5-4.5-6.6-13.8-10.7-18.6-7.9-49.3-14.1-67.3-19.5-23.9-7.2,7.1-1.9,14.2-.5,70.7,12.1,214.2,42.7,259.7,33.9,9.3-2.7,1.8-7-4.4-10.3-2.5-1.8-19.6-8.5-7.9-7.2,46.2,6.9,90.6,20.5,130.9,35.9,8.8,3.5,17.8,7.2,25.4,11.4,28.4,16.5.9,15.3-22.1,11.9-32-4.5-95.7-12.8-106.1,13.2-3.7,9.8,4.4,21.3-18.7,23.2-19.8,1.7-41.4,0-61.1-2.4-36.2-4.7-64.9-14.7-100.3-19.2-31.8-3.9-57.5-4.3-67.4,16.8-3.9,8.2-7.7,16.6-11.8,24.7-2.1,4.5-3.2,8.8-6,12.2-10.4,14.1-54.2,13.7-78.8,14.4-24.4-.3-44.7.2-61-8.9-11.6-7.1-16.6-17.4-26.5-27.8-10.3-11.8-26.8-20.9-45.3-27.9-10-4.1-19.8-8.3-28.8-13.1-15.9-8.4-29-18.6-43.6-28-15.1-9.8-31.5-19.2-48.9-27.4-18.2-8.6-41.6-17.2-65.4-13.9-19.1,2.2-37.1,9.7-57.1,9.7-53.3-.3-92.4-47.2-60.4-70.6C20.2,2.4,32.9-.5,46.4,0h.3Z"/>
</svg>