<?xml version="1.0" encoding="UTF-8"?>
<svg id="Calque_1" xmlns="http://www.w3.org/2000/svg" version="1.1" viewBox="0 0 60 90">
  <!-- Generator: Adobe Illustrator 29.3.1, SVG Export Plug-In . SVG Version: 2.1.0 Build 151)  -->
  <defs>
    <style>
      .st0 {
        fill: none;
      }

      .st1 {
        fill: #cc9544;
      }

      .st2 {
        fill: #fcd958;
      }

      .st3 {
        fill: #c2c212;
      }

      .st4 {
        fill: #fff;
      }

      .st5 {
        fill: #4e600a;
      }

      .st6 {
        fill: #698911;
      }
    </style>
  </defs>
  <path id="bottom-mask" class="st2" d="M11.1,48.9c4.1,4.1,9.9,6,19,6s15.2-2.8,18.4-6h11.5s0,41.1,0,41.1H0v-41.1h11.1Z"/>
  <path id="top-mask" class="st2" d="M0,0v48.9h11.1c4.1,4.1,9.9,6,19,6s15.2-2.8,18.4-6h11.5V0H0Z"/>
  <rect id="hitzone" class="st0" width="60" height="90"/>
  <polygon id="cap-dark" class="st1" points="29.4 16.1 29.4 5.6 39.2 6.7 36.7 17.1 29.4 16.1"/>
  <ellipse id="cap-light" class="st2" cx="34.2" cy="6" rx=".8" ry="5" transform="translate(24.6 39.4) rotate(-83.9)"/>
  <path id="light" class="st3" d="M35,32.4l1.2-11.5,2.1.2.7-7-11.4-1.2-.7,7,2.1.2-1.2,11.5s-7.9,1.3-8.5,7.3-3.8,40.7-.8,43.6c0,0,.4,1.5,7.4,2.2,7,.7,7.7-.6,7.7-.6,3.6-2.2,7.7-36.7,8.4-42.8s-6.8-9-6.8-9h0Z"/>
  <path id="main" class="st6" d="M35,32.4l1.2-11.5,2.1.2.7-6.7-9.4-1-.7,6.7,1.9.2-1.2,11.5s-4.1,3.4-5.1,9.4c-1.8,10-3.6,25.8-2.5,34.4,1.1,8.7,2.8,8.3,5.3,8.6s4.3.3,5.4-.2c4.1-2.1,7.6-36.6,8.3-42.8s-5.8-9-5.8-9h-.1Z"/>
  <path id="white" class="st4" d="M20.4,38.7l4.5.5s1.1-4.3,5.2-7.4c-3.5-.4-9.2,2.3-9.7,6.9Z"/>
  <polygon id="dark" class="st5" points="28.9 20 36.4 20.8 36.1 22.8 28.7 22 28.9 20"/>
</svg>