<?xml version="1.0" encoding="UTF-8"?>
<svg xmlns="http://www.w3.org/2000/svg" version="1.1" viewBox="0 0 25.8 49.9">
  <defs>
    <style>
      .cls-1 {
        fill: #538e68;
      }

      .cls-1, .cls-2, .cls-3, .cls-4, .cls-5, .cls-6 {
        fill-rule: evenodd;
      }

      .cls-2 {
        fill: #4c7c5d;
      }

      .cls-3 {
        fill: #8ddba7;
      }

      .cls-4 {
        fill: #c6c5be;
      }

      .cls-7 {
        fill: #fff;
      }

      .cls-5 {
        fill: #f2f0e7;
      }

      .cls-6 {
        display: none;
        fill: #64d3d6;
      }
    </style>
  </defs>
  <!-- Generator: Adobe Illustrator 28.7.1, SVG Export Plug-In . SVG Version: 1.2.0 Build 142)  -->
  <g>
    <g id="Calque_1">
      <g id="Calque_1-2" data-name="Calque_1">
        <polygon id="main" class="cls-1" points="13 16.7 13.4 13.3 14.1 13.5 15.6 10.7 14.2 9 9.9 8 8.1 8.5 8.2 11.8 9.4 12.2 8.5 15.7 2 18 0 47.7 2.8 49.4 6.8 49.9 10.1 49.2 18.3 20.9 13 16.7"/>
        <path id="dark" class="cls-2" d="M11,12.6l-1.2,4.2-3.4,4.1-4,28.1-1.6-1,2.3-29.3,5.8-2.7,1.2-3.7,1,.3h0ZM8.7,8.9v3c-.1,0,.7.2.7.2l.5-2.5-1.2-.8h0Z"/>
        <polygon id="light" class="cls-3" points="12.2 18.3 14.7 19.9 15.1 21.5 11.4 21.3 12.2 18.3"/>
        <polygon id="msg-light" class="cls-5" points="10 9 10.6 .9 14.8 0 17.8 3 14.3 10.4 10 9"/>
        <polygon id="msg-dark" class="cls-4" points="14.3 1.3 11.8 1.9 14.4 3.7 13.1 10 16.2 2.7 14.3 1.3"/>
        <path id="bottom" class="cls-6" d="M19.1,30s-3.1,2.6-9.6,2.6-12.4-2.6-12.4-2.6v23h22v-23Z"/>
        <path id="top" class="cls-6" d="M-3-19V28.6s5.9,4,12.4,4,9.6-4,9.6-4V-19H-3Z"/>
        <path id="ripple" class="cls-7" d="M27.2,29.6c-6-4-43.2-2.7-36,2.4,7.2,5.1,39.2-.2,36-2.4ZM-4.9,31.1c-2.4-.8,21.6-2.6,27-.8,5.4,1.8-22.5,2.3-27,.8Z"/>
      </g>
    </g>
  </g>
</svg>