<?xml version="1.0" encoding="UTF-8"?>
<svg xmlns="http://www.w3.org/2000/svg" version="1.1" viewBox="0 0 16.9 48.4">
  <defs>
    <style>
      .cls-1 {
        fill: #538e68;
      }

      .cls-1, .cls-2, .cls-3, .cls-4, .cls-5 {
        fill-rule: evenodd;
      }

      .cls-2 {
        fill: #4c7c5d;
      }

      .cls-6, .cls-7 {
        fill: #f2f0e7;
      }

      .cls-3 {
        fill: #8ddba7;
      }

      .cls-4 {
        fill: #c6c5be;
      }

      .cls-7 {
        display: none;
      }

      .cls-5 {
        fill: #64d3d6;
      }
    </style>
  </defs>
  <!-- Generator: Adobe Illustrator 28.7.1, SVG Export Plug-In . SVG Version: 1.2.0 Build 142)  -->
  <g>
    <g id="Calque_1">
      <g id="bottle">
        <path id="main" class="cls-1" d="M10.5,47.9c-2.8,1.3-8.6,0-10.2-1.5s.2-19.2,2.2-25.6,5.7-5.7,6.3-6.4.8-2.3,1-3.5c.1-.7.2-1.2.2-1.2l4.2.8s-.2.5-.4,1.1c0,.3-.2.6-.3,1-.3,1-.3,2-.2,2.8.2.8,3.6,2,3.6,7.9s-5.4,24.2-6.5,24.6Z"/>
        <path id="dark" class="cls-2" d="M3.1,46.8c0,.8-1.6.1-2.2-.4-.9-.7,0-18.8,2.1-25.2s5.7-5.7,6.3-6.4.8-2.3,1-3.5c.1-.7.2-1.2.2-1.2l1.3.2s-.2.4-.4,1c0,.3-.3,1.5-.4,1.8-.3,1-.6,2.2-1.2,3.4-1.4,2-3,2.9-4.3,8.6s-2.6,13.9-2.4,21.5Z"/>
        <path id="main-2" data-name="main" class="cls-1" d="M15.9,9.4c-.2,1-.8,2-.8,2-.4.1-.9.2-1.4.3-1.4,0-2.9-.3-4-.7-.7-.3-1.2-.5-1.2-.5-.2-1-.3-2.4-.1-3.1,0,0,0-.2,0-.2,0-.2.9-.5.9-.5,3.4.2,5,1.1,6.2,2.1.2.2.3.3.3.5,0,0,0,0,0,0Z"/>
        <path id="dark-2" data-name="dark" class="cls-2" d="M10.2,8.3c-.1,3,4.5,3,4,3-1.4,0-2.8-.2-3.8-.5-.7-.3-1.2-.5-1.2-.5-.2-1-.4-2-.2-2.6,0,0,.8.5,1.2.6Z"/>
        <path id="hole" d="M9.2,7.1c2.6,1.8,6.2,2,6.2,2,0,0-1.5-1.1-2.9-1.5-2.4-.6-3.4-.5-3.4-.5Z"/>
        <path id="light" class="cls-3" d="M10.2,17.5c1.7.9,4.1.8,4.2.4s-1.7-1.7-2.5-1.8-1.9,1.2-1.6,1.4Z"/>
        <g id="message">
          <path id="light-2" data-name="light" class="cls-6" d="M11.4,0s-.8,4.3-1,7.8c0,0,2.5,1.1,4.2,1.1,0,0,1.2-3.5,2.3-6.8,0,0-2.1-2.6-5.5-2.1Z"/>
          <path id="dark-3" data-name="dark" class="cls-4" d="M14.2.8c-1.6-.6-2.4-.3-2.4-.3.8,1,1.2,1.8,2,2.1h.3s-.5,5.2-.5,5.2l1.2-5.1h.3c1,0,1.2-.5,1.2-.5,0,0-.3-.7-2.1-1.5Z"/>
          <path id="light-3" data-name="light" class="cls-7" d="M14,2.3c-.6-.2-1.8-1.1-1.7-1.3h0c.1-.3,1.5,0,2,.1.2,0,1.7.9,1.7,1.2-.3.3-1.8,0-2,0ZM12.7,1.2c.2.2.8.5,1.4.8.7.2,1.1.2,1.3.2-.2-.1-.7-.4-1.4-.7-.7-.2-1.1-.3-1.4-.3Z"/>
        </g>
      </g>
      <path id="bottom" class="cls-5" d="M19.5,29.1s-3.1,2.6-9.6,2.6-12.4-2.6-12.4-2.6v23h22v-23Z"/>
      <path id="top" class="cls-5" d="M-2.6-1.9v31s5.9,2.6,12.4,2.6,9.6-2.6,9.6-2.6V-1.9H-2.6Z"/>
    </g>
  </g>
</svg>