<svg xmlns="http://www.w3.org/2000/svg" xmlns:xlink="http://www.w3.org/1999/xlink" version="1.1" viewBox="0 0 345.4 89.7">
  <defs>
    <style>
      .cloud-back {
        fill: url(#cloud07-back-gradient);
        mix-blend-mode: soft-light;
      }
    </style>
    <linearGradient id="cloud07-back-gradient" x1="172.8" y1="2.3" x2="172.8" y2="92" gradientTransform="translate(0 92) scale(1 -1)" gradientUnits="userSpaceOnUse">
      <stop offset="0" stop-color="#4fcfff"/>
      <stop offset="0" stop-color="#69d4ff"/>
      <stop offset=".2" stop-color="#8ddcff"/>
      <stop offset=".3" stop-color="#aae2ff"/>
      <stop offset=".5" stop-color="#c0e7ff"/>
      <stop offset=".6" stop-color="#d0ebff"/>
      <stop offset=".8" stop-color="#daedff"/>
      <stop offset="1" stop-color="#def"/>
    </linearGradient>
  </defs>
  <path class="cloud-back" d="M2.8,38.6C7.6,18.1,20.2.7,53.3,0c33.1-.7,55.6,53.9,55.6,53.9,0,0-1-16.4,7-13.9,5.3,1.7,9.9,10.5,9.9,10.5,0,0,10.4-6.4,28.3-5.6,29.9,1.3,47.3,26.2,58.7,33.5,0,0,20.7-7.9,34.6-4.4,13.9,3.5,12.1,4.4,28.6,7.7,16.4,3.3,69.5,8,69.5,8H12.5S-7.1,71.9,2.8,38.6Z"/>
</svg>