<svg xmlns="http://www.w3.org/2000/svg" xmlns:xlink="http://www.w3.org/1999/xlink" version="1.1" viewBox="0 0 374.2 57.9">
  <defs>
    <style>
      .cloud-back {
        fill: url(#cloud06-back-gradient);
        mix-blend-mode: soft-light;
      }
    </style>
    <linearGradient id="cloud06-back-gradient" x1="187.1" y1="2.1" x2="187.1" y2="60" gradientTransform="translate(0 60) scale(1 -1)" gradientUnits="userSpaceOnUse">
      <stop offset="0" stop-color="#def"/>
      <stop offset=".2" stop-color="#daedff"/>
      <stop offset=".4" stop-color="#d0ebff"/>
      <stop offset=".5" stop-color="#c0e7ff"/>
      <stop offset=".7" stop-color="#aae2ff"/>
      <stop offset=".8" stop-color="#8ddcff"/>
      <stop offset=".9" stop-color="#69d4ff"/>
      <stop offset="1" stop-color="#4fcfff"/>
    </linearGradient>
  </defs>
  <path class="cloud-back" d="M374.2,57.8s-96.3.2-156.6,0c-79.8-.2-217.6,0-217.6,0,0,0,34.5-8.4,117.7-10.5,0,0,5.7-8.7,14.6-7.6,8.9,1.1,15.3,7,15.3,7,0,0,12.1-44.5,36.5-46.6,24.4-2.1,28.6,40.3,28.6,40.3,0,0,8.3-2.9,14.2,2.6,0,0,7.8,7.6,21.7,6.8,23-1.4,39.6-22.4,51.4-25.5s18.3,4.1,23.9,8.5c13,10.2,33.1,20.5,50.4,25.1h0Z"/>
</svg>