<?xml version="1.0" encoding="UTF-8"?>
<svg xmlns="http://www.w3.org/2000/svg" xmlns:xlink="http://www.w3.org/1999/xlink" version="1.1" viewBox="0 0 139.4 191.9">
  <defs>
    <style>
      .cls-1 {
        fill: #a57434;
      }

      .cls-1, .cls-2, .cls-3, .cls-4, .cls-5, .cls-6, .cls-7 {
        fill-rule: evenodd;
      }

      .cls-2 {
        fill: #db8d2e;
      }

      .cls-8 {
        fill: url(#_ГӮГҒ_ГҸ_ГҢГҢ_ГҲ_ГӢГӮГҢГҡ_266);
      }

      .cls-3 {
        fill: #a09618;
      }

      .cls-9 {
        fill: #d6d6d6;
      }

      .cls-9, .cls-6 {
        opacity: .1;
      }

      .cls-9, .cls-6, .cls-7 {
        mix-blend-mode: multiply;
      }

      .cls-10 {
        isolation: isolate;
      }

      .cls-4 {
        fill: #754714;
      }

      .cls-5 {
        fill: #086800;
      }

      .cls-7 {
        opacity: .2;
      }
    </style>
    <linearGradient id="_ГӮГҒ_ГҸ_ГҢГҢ_ГҲ_ГӢГӮГҢГҡ_266" data-name="ВЎГӮГҒЛҡГҸЛҮГҢГҢЛҡГҲ вҖһпЈҝвҖЎвҖ°ГӢГӮГҢГҡ 266" x1="57.9" y1="189.7" x2="57.9" y2="166" gradientUnits="userSpaceOnUse">
      <stop offset="0" stop-color="#ccb4a7"/>
      <stop offset="0" stop-color="#ccb4a8"/>
      <stop offset="1" stop-color="#cdbdba"/>
    </linearGradient>
  </defs>
  <!-- Generator: Adobe Illustrator 28.7.1, SVG Export Plug-In . SVG Version: 1.2.0 Build 142)  -->
  <g class="cls-10">
    <g id="Calque_1">
      <path id="back" class="cls-5" d="M36,178.9s6.8-10.9,10.7-12.1c3.9-1.3,23.2-1,25.2.2,2,1.2,2.9,4.5,2.9,4.5,0,0,16.4-1.5,18.4-.7,2.1.8,4.8,8.9,4.8,8.9l-16.4,3.4-26.1.6h-18.3l-1.3-4.9Z"/>
      <g id="wood">
        <polygon id="dark" class="cls-4" points="56.9 177.2 59.3 153.3 61.8 144.5 64.2 144.5 67.3 164.9 67.3 178.9 56.3 178.9 56.9 177.2"/>
        <path id="main" class="cls-1" d="M72.3,162.8l-1.3-9.6-3.1-13.6-.6,1.2-1.4-4.9-3.3,2.8-.6,9.7c-1.9-.6-4.1.3-4.1.3l-3.9,2.9v-2.9l-22.5,31.8,15.6,2,15-29.6.5,8.7-3.2,1.2c-.7.9-1.5,18.4-1.5,18.4l17.2-1.5v-2.7l-2.8-14.4Z"/>
        <path id="angle" class="cls-2" d="M53.9,151.7l-7.8,8.1s4.6-2.1,7.8-5.1c3.2-2.9,4.5-6.2,4.5-6.2,0,0-2.5,1.1-4.5,3.1Z"/>
        <polygon id="dark-2" data-name="dark" class="cls-4" points="76.6 176.2 72.7 159.8 70.9 152.1 73.7 156.4 75 157.1 78.7 168.8 81.1 169.8 86.3 181.6 80.5 181.6 76.6 176.2"/>
        <path id="shadow" class="cls-7" d="M60.9,166.4l1.7,10,4.7,1.6,2.5-.7-2-14.5-.5-10.6v-11.3l.5,12.4,1.5,9.4,5.8,17.3-14.2,1.2v-14.8ZM47,182.6l7.6-14.9,5.4-10.6-5.9,7.9-1.3.4,3.5-8.4,4.4-8.8-6.4,8.3s-4.3,9.1-4.5,9.6c-.2.4-2.9,2.8-2.9,2.8l-.3-5.7,1.7-4.8,5.5-6.7-6.9,7.7-7.1,15.7-8.5,5.6,15.6,2ZM76.6,162v8.7h0l-1.1-3-2.9-13.1-1.7-2.5,4.1,17.6,1.5,6.6,3.9,5.4h5.8l-5.2-11.9-3.2,2.1.8-3.1-2.1-6.8Z"/>
        <path id="dark-3" data-name="dark" class="cls-4" d="M44.8,181.4l4.7-10s5.3-4.3,8.3-4.7l3.1-.4v14.8l-8.1,2.6-8.1-2.3Z"/>
        <path id="top" class="cls-3" d="M62.5,161.8l5.3.9h-4.1c0,.1-4.4.4-4.4.4l3.2-1.2ZM49.5,171.4s1.6,2.6,5.8,1.7c4.2-.9,5.6-6.7,5.6-6.7,0,0-5.3-1-11.4,5.1Z"/>
        <path id="shadow-2" data-name="shadow" class="cls-7" d="M44.8,181.4s7.3,1.6,8.1,1.7,2.8-10.1,2.8-10.1l2.2-1.1-.8,6.9.8,2.1,1.3-10.6,1.7-3.8v14.8l-8.1,2.6-8.1-2.3Z"/>
      </g>
      <path id="smoke" class="cls-9" d="M77.4,94.2c-3.4-12-30.9-25.4-27.5-32.5,9.4-19.4,23.1-20,23.4-26.9.2-6.3-4.4-30.8-5.2-34.9.5,3.3,2.8,20.4,0,31.8-3.3,12.7-34.9,39.5-28.6,53.8,6.3,14.3,27.3,19.8,25.8,26.4-1.4,6.7-13.9,5.2-11.5,11.2,1.2,3,6.1,2.7,6,4.7-.5,6.4,1.1,14.7,1.1,14.7-.4-4.9-.5-7-.5-10.6,0-4.2,3.3-5.6,1.5-9.2-3.9-7.8,20.9-10.1,15.6-28.6ZM47.8,63.7c1.5.3,3.3,5.3,2.9,5.7-.4.4-3.2.8-4.1-.8-.5-.7.5-5.1,1.3-4.9ZM40.6,78.4c-.4-1.3-.8-3.5,1-3.7,1.7-.2,5.8,4.3,4.7,5.8-1.1,1.6-5.1-.5-5.7-2.2ZM61.8,97.1c-.3,1.5-5.7,3.5-11.1.4-5.4-3.2-11.1-13.9-7.3-15,9.2-2.8,18.9,12.3,18.4,14.7Z"/>
      <polygon id="shadow-3" data-name="shadow" class="cls-6" points="3.6 189.7 35 191.9 83.5 191.9 130.3 190.3 131.8 189.3 127.5 187.3 136 186.8 108.5 184.7 113.6 179 3.6 189.7"/>
      <path id="rocks" class="cls-8" d="M115.9,179l-2.8-4.3c-.6-.9-1.3-1.7-2.1-2.5h0s0,0,0,0c-.9-.9-1.8-1.7-2.7-2.5h0s-4.1-3.6-4.1-3.6c0,0-6.5-.3-9.7.7-.3.1-.7.3-1,.5h0s0,0,0,0c0,0-.1,0-.2.1-3.4,1.9-5.4,5.8-5.4,5.8l-.6,7.9-8.9-1.5-3.6-4.9s-11.3-1.2-26,3.7c-2.3,1.3-3.9,2.6-4.9,3.4-.3.2-.5.4-.8.6l-4.4-12.7s-.4,0-1.1,0c0,0-.1,0-.2,0-2.2,0-7.1,0-13.5,1.2,0,0,0,0,0,0-8.2,1.1-16.9,5.4-16.9,5.4L0,189.7l23.8-1.3,16.5-.9.7,1.6h11.4l14.6-1h0s3.2-.2,3.2-.2l7-.5,3.4.5,6.1-1.6.3-1.5,16.4-1,12.5-4.7Z"/>
    </g>
  </g>
</svg>