<svg xmlns="http://www.w3.org/2000/svg" xmlns:xlink="http://www.w3.org/1999/xlink" version="1.1" viewBox="0 0 862.9 91.7">
  <defs>
    <style>
      .island-shadow {
        fill: #d1becd;
        opacity: .7;
      }
      .island-shadow, .island-wet {
        mix-blend-mode: multiply;
      }
      .island-wet {
        fill: #efdbff;
        opacity: .5;
      }
      .island-grass {
        fill: url(#island-grass-gradient);
      }
      .island-sand {
        fill: url(#island-sand-gradient);
      }
      .island-water {
        fill: url(#island-water-gradient);
      }
    </style>
    <radialGradient id="island-water-gradient" cx="413" cy="52" fx="413" fy="52" r="458.9" gradientUnits="userSpaceOnUse">
      <stop offset=".3" stop-color="#ccd89c"/>
      <stop offset=".5" stop-color="#a7dbae"/>
      <stop offset=".7" stop-color="#7adec5"/>
      <stop offset=".9" stop-color="#5ee1d3"/>
      <stop offset="1" stop-color="#54e2d9"/>
    </radialGradient>
    <linearGradient id="island-sand-gradient" x1="435.5" y1="24.5" x2="435.5" y2="88.1" gradientTransform="translate(0 94) scale(1 -1)" gradientUnits="userSpaceOnUse">
      <stop offset="0" stop-color="#fabb52"/>
      <stop offset=".6" stop-color="#fdd56b"/>
      <stop offset="1" stop-color="#ffe075"/>
    </linearGradient>
    <linearGradient id="island-grass-gradient" x1="431.6" y1="70.6" x2="431.6" y2="92.2" gradientTransform="translate(0 94) scale(1 -1)" gradientUnits="userSpaceOnUse">
      <stop offset="0" stop-color="#aead13"/>
      <stop offset=".4" stop-color="#899e20"/>
      <stop offset=".8" stop-color="#6d942b"/>
      <stop offset="1" stop-color="#63902f"/>
    </linearGradient>
  </defs>
  <path class="island-water" d="M64.7,29L0,40.9s191,45.6,356.5,50c189.2,5,442.4-11,506.4-39.4,0,0-10-10.1-78.8-17.6-63.3-6.1-719.3-4.8-719.3-4.8h-.1Z"/>
  <path class="island-sand" d="M801.2,48.7c0,8.4-183.7,23.1-391.5,20.5-198.8-2.5-150.1-23.2-150.3-26.5-.3-4.5-100.5-2.2-217.4-9.6h-.2.2c2.5-.5,27.3-5.3,73.4-10.7h0c53.9-6.4,137-13.6,247.7-15.9,188-3.9,370.1,19.9,444.1,30.9,9,1.3,16.3,2.5,22,3.4-1.7-.2-36-3.8-40.4-.8-3.1,2.1,12.5,3,12.5,8.9v-.2Z"/>
  <path class="island-wet" d="M801.2,48.7c0,8.4-183.7,23.1-391.5,20.5-198.8-2.5-150.1-23.2-150.3-26.5-.3-4.5-100.5-2.2-217.4-9.6h0s42.6-7.8,73.4-10.8c0,0-35.4,6.6-39.5,9-4.2,2.5,188.8,7.4,189.3,9.1,1.1,3.3-8.6,9-5.8,11.8,6.9,7,119.5,22.2,300.4,12,80.3-4.5,233-15.6,234.7-16.9,1.7-1.3-13.3-7-13.8-8.4-.4-1.1,19.3-1.5,26.5-1.6,9,1.3,16.3,2.5,22,3.4-1.7-.2-36-3.8-40.4-.8-3.1,2.1,12.5,3,12.5,8.9h-.1Z"/>
  <path class="island-grass" d="M219.4,12.4s51.4-3.7,54.1-3.2c2.6.6-5.5,4.5-4.6,5.5s66.8-1.3,120-.5c0,0,20.5.3,20.2,1.2-.4,1.2-27.5.1-28.8,3.1s131,6.8,155.5,3.7c3.9-.5-18.6-2.3-16.4-3.6s54.1-2.1,86.2-1.7c27.7.4,38.2-.4,38.2-.4,0,0-88.2-12-197.6-14.5C338.9-.3,219.4,12.4,219.4,12.4Z"/>
  <path class="island-shadow" d="M267.6,9.5l90.6,2.6,27.2-5.2s150.3,10.1,214,14.9,80.1-.6,80.1-.6c0,0-74.6-10.5-118.5-13.4C517.1,4.8,401.2,0,401.2,0h-30.8l-90.4,7.8-12.3,1.7h-.1Z"/>
</svg>