<?xml version="1.0" encoding="UTF-8"?>
<svg xmlns="http://www.w3.org/2000/svg" version="1.1" viewBox="0 0 22.4 25.3">
  <defs>
    <style>
      .cls-1 {
        fill: #759728;
      }

      .cls-2 {
        fill: #507020;
      }

      .cls-3 {
        opacity: .1;
      }

      .cls-4 {
        fill: #4f711e;
      }

      .cls-5 {
        fill: #92b132;
      }
    </style>
  </defs>
  <!-- Generator: Adobe Illustrator 28.7.1, SVG Export Plug-In . SVG Version: 1.2.0 Build 142)  -->
  <g>
    <g id="Calque_1">
      <g id="Leaf2">
        <path id="dark" class="cls-4" d="M18.7,15.4c0-3,1-6.7,1.1-8.7.1-2,.8-4.5-1.8-6l-8.1,2.3s8.1,3.3,8.4,4.6c.3,1.4-.1,4.9-.2,7.6,0,4,.5,10.1.5,10.1h3.9s-3.5-4.9-3.7-9.9Z"/>
        <path id="back" class="cls-1" d="M5.3,14.7c.2,0,1.4.8,2.7,1,.7-.5,1.4-1,2-1.4l1.2-1.6-1-.7,1.2.4,1-1.3-4.1-2.1,4.6,1.5,1.2-2.8-1.8-.3,1.8-.2,1-2.3-3.1-1h3.6s2.3-3.2,2.3-3.2C18,.7,9.7,0,9.1,0S.9,1.1.7,1.5l-.2,1.6,2.8.3L.1,3.7s-.5,4.1.7,6.4c1.2,2.3,2,6.5.4,8.1,0,0,3.1,0,4.6-1.2.4-.3.9-.5,1.3-.8-1.1-.4-2-1.6-1.8-1.6Z"/>
        <path id="light" class="cls-5" d="M11.4,12.4l-1.2-.4,1,.7-.2.3c-2.8-2-4.5-2.7-5.1-2.9l5.8,1.9-.3.4ZM14.7,5.8l-8.6-.4-.2,1.3s4.9.7,7.9,1.6l.3-.8-1.8-.3,1.8-.2.6-1.3ZM7.8.8s5.6,1.1,8.9,1.7l1.3-1.8-8.9-.7h-.8c0,0-.4.8-.4.8Z"/>
        <path id="shadow" class="cls-3" d="M.7,1.5l-.2,1.6,2.8.3L.1,3.7s-.5,4.1.7,6.4c1.2,2.3,2,6.5.4,8.1,0,0,0,0,.1,0,3.4-2.7,5-8.3,4.6-10.1-.4-1.6.5-5.5,2.2-8.1C6.1.4.8,1.2.7,1.5Z"/>
        <path id="dark-2" data-name="dark" class="cls-2" d="M6,8.1c0,.4,0,.9,0,1.5l-4.4,2.4c-.2-.7-.5-1.3-.8-1.9-.2-.4-.4-.9-.5-1.5,3-.6,5.1-1.2,5.6-1.2,0,.3,0,.5,0,.7ZM4.8,13.6H2c0,.4.1.9.1,1.3l2.3-.5c.1-.3.3-.6.4-.8Z"/>
      </g>
    </g>
  </g>
</svg>