<?xml version="1.0" encoding="UTF-8"?>
<svg xmlns="http://www.w3.org/2000/svg" version="1.1" viewBox="0 0 39.3 35">
  <defs>
    <style>
      .cls-1 {
        fill: #749627;
      }

      .cls-2 {
        fill: #506f1e;
      }
    </style>
  </defs>
  <!-- Generator: Adobe Illustrator 28.7.1, SVG Export Plug-In . SVG Version: 1.2.0 Build 142)  -->
  <g>
    <g id="Calque_1">
      <g id="Leaf1">
        <path id="back" class="cls-1" d="M25.4,5.9c-.8,1-2.1,1.8-3.3,2.7l-2.5-1.8,2.1,2.1c-1.6,1.2-3.1,2.3-4,2.8l-2.8-3.8,2.2,4.1c-1.7.7-5.5,1.9-9.6,3l-.6-3-.5,3.3c-2.2.6-4.5,1.1-6.4,1.5C0,16.8,14.1.3,14.6,0c.9-.4,9,1,12,1.5,0,0,.8,1.8-1.2,4.3Z"/>
        <path id="dark" class="cls-2" d="M11.1,14c-1.1.3-2.3.7-3.6,1l-.6-3-.5,3.3c0,0-.2,0-.3,0,.5-2.3.7-4.6.7-6.5.9-1,1.7-2,2.6-3l1.8,8.1ZM15.5,1.4l7.8,6.4c.4-.3.7-.5,1-.8L15.5,1.4ZM33.8,20.8c-.4-1.6-1.9-14.7-1.9-14.7l-4.3-4.3s-.4,0-1.1-.2c0,.6,0,1.1,0,1.4-.1.7-.7,1.9-1.1,2.9,1.3-1.2,2.3-2.1,2.3-2.1,0,0,3.2,2.6,3.5,3.3,1.3,3.3,1.5,11,2.1,13.6.3,1.2,1.9,9.7,2.9,14.3.3,0,3.1-.2,3.1-.2,0,0-5.1-12.5-5.5-14ZM18.7,11.2L12.4,2.4c-.2.2-.4.5-.6.7l4.8,9.2c.2,0,.4-.2.6-.2l-2.2-4.1,2.8,3.8c.2-.1.6-.3.9-.6Z"/>
      </g>
    </g>
  </g>
</svg>