<?xml version="1.0" encoding="UTF-8"?>
<svg xmlns="http://www.w3.org/2000/svg" version="1.1" viewBox="0 0 18 34.1">
  <defs>
    <style>
      .cls-1 {
        fill: #759728;
      }

      .cls-2 {
        fill: #51711e;
      }

      .cls-3 {
        opacity: .1;
      }

      .cls-4 {
        fill: #92b132;
      }
    </style>
  </defs>
  <!-- Generator: Adobe Illustrator 28.7.1, SVG Export Plug-In . SVG Version: 1.2.0 Build 142)  -->
  <g>
    <g id="Calque_1">
      <g id="Leaf3">
        <path id="dark" class="cls-2" d="M18,5.7l-7-2.6-8.4,1.4c.8,2.4,3.3,5,5.9,7.2h1.3s-.4.7-.4.7c3.5,2.7,7,4.8,7,4.8,0,0,.3-1.3.7-3.1-1.4-.7-2.3-1.2-2.3-1.2l2.5.3c.1-.6.2-1.2.3-1.8l-1-.5,1.2-.7c.2-1.7.4-3.3.3-4.5Z"/>
        <path id="back" class="cls-1" d="M1.6,16c.3-.2,2.8-2.5,4-3.8.4-.4,1.9-1.2,3.6-2.2l-3.3-2.7,4.3,2.2c.5-.2,1-.5,1.5-.7l-1.4-1.1,2.4.5c1-.5,2-1,2.8-1.4l-1.4-1.3-3.1-1.7,4.1,1.7,1.2,1c1-.5,1.7-.8,1.7-.8,0,0-8.4-5.7-9.2-5.7S.7,2,.4,2.6c-.4.6,0,13.3,0,13.3,0,0,0,6.8-.5,11.6l1,5.9,2.7.7s-2.1-5.8-2.7-8c-.3-1.1-.6-9.5.6-10.1Z"/>
        <path id="light" class="cls-4" d="M13.8,7.7l-7.5-3.2-.8.8s2.9,1.9,5.9,3.6c0,0,.2,0,.2-.1l-1.4-1.1,2.4.5c.3-.2.7-.3,1-.5Z"/>
        <path id="shadow" class="cls-3" d="M8.8,0C8.1,0,.7,2,.4,2.6c-.4.6,0,13.3,0,13.3,0,0,0,1.3,0,3.2l.4-.2c0-.6.1-1.2.2-1.7.7-5.8,3.4-10.8,3.4-10.8L10.3.8c-.8-.5-1.4-.8-1.5-.8Z"/>
        <path id="dark-2" data-name="dark" class="cls-2" d="M1,26.1c.6,2.2,2.7,8,2.7,8l-2.7-.7-1-5.9c.6-4.9.5-11.6.5-11.6,0,0,0-1.3,0-3.1.2,1.6.3,2.2.3,2.2l2.7-6.5s-2.1,5.2-2,7.6c-.9,1.3-.7,8.9-.4,10ZM4.1,5s-1.8-1.6-3.1-2.8c-.3.1-.5.2-.6.3,1.8,1.3,3.7,2.5,3.7,2.5ZM7.7.2l1.7,1.4-1.1,1.1-3.7-1.7c1.2-.3,2.3-.6,3.1-.8Z"/>
      </g>
    </g>
  </g>
</svg>