<?xml version="1.0" encoding="UTF-8"?>
<svg xmlns="http://www.w3.org/2000/svg" version="1.1" viewBox="0 0 16.1 38.4">
  <defs>
    <style>
      .cls-1 {
        opacity: .1;
      }

      .cls-1, .cls-2, .cls-3, .cls-4 {
        fill-rule: evenodd;
      }

      .cls-2 {
        fill: #51711e;
      }

      .cls-3 {
        fill: #92b132;
      }

      .cls-4 {
        fill: #759728;
      }
    </style>
  </defs>
  <!-- Generator: Adobe Illustrator 28.7.1, SVG Export Plug-In . SVG Version: 1.2.0 Build 142)  -->
  <g>
    <g id="Calque_1">
      <g id="Leaf6">
        <polygon id="dark" class="cls-2" points="16.1 4.8 5.2 4 7.8 13.5 15.2 8.8 14.9 7.1 16.1 4.8"/>
        <path id="back" class="cls-4" d="M16.1,4.8C15.8,4.7,8.9,0,8.1,0,7.4,0,.2,3.1.2,3.1c0,.1-.1.3-.1.5h1.9C2,3.7,0,4.3,0,4.3c0,.6,0,.9.3,1.6l4.1.2s-2,.3-4,.7c1.4,5,6.5,11.7,6.5,11.7,0,0,1.2,6.1-.6,19.9l2.8-3.2c-.6-1.8-1.4-16.3-1.3-16.6,0-.3,1.4-6.8,3-8.5.3-.3.7-.7,1.1-1.1-.7-.4-2-1.3-1.7-1.2s1.5.4,2.3.6c.6-.5,1.1-1.1,1.7-1.6l-2.8-1.8,3.9.8c.6-.6,1-1,.9-1Z"/>
        <path id="light" class="cls-3" d="M6.6,6.4L.7,7.7c-.1-.3-.2-.6-.3-.9,1.9-.4,4-.7,4-.7l-4.1-.2c0-.1,0-.3,0-.4,3,.2,6.6-.3,6.6-.3l-.2,1.3ZM8.1,0C6.5.4,3,2,1.4,2.6c3.1-.6,6.3-1.3,6.3-1.3L8.1,0Z"/>
        <path id="shadow" class="cls-1" d="M7.8,18.6c0-.3,1.4-6.8,3-8.5.3-.3.7-.7,1.1-1.1-.7-.4-2-1.3-1.7-1.2s1.5.4,2.3.6c.6-.5,1.1-1.1,1.7-1.6l-2.8-1.8,3.9.8c.6-.6,1-1,.9-1C15.8,4.7,8.9,0,8.1,0c0,0,0,0,0,0-1,3.2-3,10.8-.9,18.4l.6.5c0-.2,0-.3,0-.3Z"/>
        <path id="dark-2" data-name="dark" class="cls-2" d="M15.2,5.8l-3.9-.8,2.8,1.8c-.1.1-.2.2-.3.3-1.4-.9-4-2.6-6.6-4.1.1-.5.2-1,.4-1.4l8.2,3.5c-.2.2-.4.4-.6.7ZM9,35.2c-.6-1.8-1.4-16.3-1.3-16.6,0-.1.3-1.6.8-3.3l-1.5,2.4s-.5-.4-1.9-1.7c1,1.5,1.7,2.5,1.7,2.5,0,0,1.2,6.1-.6,19.9l2.8-3.2Z"/>
      </g>
    </g>
  </g>
</svg>