<svg xmlns="http://www.w3.org/2000/svg" xmlns:xlink="http://www.w3.org/1999/xlink" version="1.1" viewBox="0 0 114 167.3">
  <defs>
    <style>
      .palm-leaf-3 {
        fill: url(#palm02-leaf-gradient-3);
      }
      .palm-leaf-4 {
        fill: url(#palm02-leaf-gradient-4);
      }
      .palm-leaf-2 {
        fill: url(#palm02-leaf-gradient-2);
      }
      .palm-leaf-5 {
        fill: url(#palm02-leaf-gradient-5);
      }
      .palm-shade-5 {
        fill: url(#palm02-shade-gradient-5);
      }
      .palm-shade-5, .palm-shade-3, .palm-shade-6, .palm-shade-8, .palm-shade-7, .palm-shade-2 {
        opacity: .5;
      }
      .palm-shade-5, .palm-shade-3, .palm-shade-6, .palm-shade-8, .palm-shade-7, .palm-shade-2, .palm-shade-4, .palm-shade {
        mix-blend-mode: multiply;
      }
      .palm-shade-3 {
        fill: url(#palm02-shade-gradient-3);
      }
      .palm-shade-6 {
        fill: url(#palm02-shade-gradient-6);
      }
      .palm-shade-8 {
        fill: url(#palm02-shade-gradient-8);
      }
      .palm-shade-7 {
        fill: url(#palm02-shade-gradient-7);
      }
      .palm-shade-2 {
        fill: url(#palm02-shade-gradient-2);
      }
      .palm-shade-4 {
        fill: url(#palm02-shade-gradient-4);
      }
      .palm-leaf-lighter {
        fill: url(#palm02-leaf-lighter-gradient);
      }
      .palm-trunk-light {
        fill: url(#palm02-trunk-light-gradient);
      }
      .palm-leaf-dark {
        fill: url(#palm02-leaf-dark-gradient);
      }
      .palm-leaf-light-3 {
        fill: url(#palm02-leaf-light-gradient-3);
      }
      .palm-mid-right {
        fill: url(#palm02-mid-right-gradient);
      }
      .palm-mid-left {
        fill: url(#palm02-mid-left-gradient);
      }
      .palm-leaf-light {
        fill: url(#palm02-leaf-light-gradient);
      }
      .palm-trunk-dark {
        fill: url(#palm02-trunk-dark-gradient);
      }
      .palm-shade {
        fill: url(#palm02-shade-gradient);
      }
      .palm-leaf {
        fill: url(#palm02-leaf-gradient);
      }
      .palm-leaf-light-2 {
        fill: url(#palm02-leaf-light-gradient-2);
      }
      .palm-leaf-dark-2 {
        fill: url(#palm02-leaf-dark-gradient-2);
      }
      .palm-leaf-dark-3 {
        fill: url(#palm02-leaf-dark-gradient-3);
      }
      .palm-mid-left-4 {
        fill: url(#palm02-mid-left-gradient-4);
      }
      .palm-mid-left-3 {
        fill: url(#palm02-mid-left-gradient-3);
      }
      .palm-mid-left-2 {
        fill: url(#palm02-mid-left-gradient-2);
      }
      .palm-leaf-lighter-2 {
        fill: url(#palm02-leaf-lighter-gradient-2);
      }
    </style>
    <linearGradient id="palm02-leaf-dark-gradient" x1="69.7" y1="53" x2="69.7" y2="15.8" gradientUnits="userSpaceOnUse">
      <stop offset="0" stop-color="#6f7b00"/>
      <stop offset=".6" stop-color="#597314"/>
      <stop offset="1" stop-color="#4f701e"/>
    </linearGradient>
    <linearGradient id="palm02-leaf-dark-gradient-2" x1="56.9" y1="52.4" x2="56.9" y2="23.6" xlink:href="#palm02-leaf-dark-gradient"/>
    <linearGradient id="palm02-leaf-gradient" x1="62.4" y1="11.1" x2="114" y2="11.1" gradientUnits="userSpaceOnUse">
      <stop offset="0" stop-color="#aead13"/>
      <stop offset=".4" stop-color="#899e20"/>
      <stop offset=".8" stop-color="#6d942b"/>
      <stop offset="1" stop-color="#63902f"/>
    </linearGradient>
    <linearGradient id="palm02-leaf-dark-gradient-3" x1="30.7" y1="23.2" x2="30.7" y2="7.9" xlink:href="#palm02-leaf-dark-gradient"/>
    <linearGradient id="palm02-trunk-dark-gradient" x1="57.5" y1="167.3" x2="57.5" y2="19.1" gradientUnits="userSpaceOnUse">
      <stop offset="0" stop-color="#b87251"/>
      <stop offset=".2" stop-color="#a76656"/>
      <stop offset=".7" stop-color="#8b535f"/>
      <stop offset="1" stop-color="#814c63"/>
    </linearGradient>
    <linearGradient id="palm02-trunk-light-gradient" x1="62.5" y1="99.1" x2="62.5" y2="42.2" gradientUnits="userSpaceOnUse">
      <stop offset="0" stop-color="#ef9f3b"/>
      <stop offset=".3" stop-color="#e4963f"/>
      <stop offset=".8" stop-color="#c87f4a"/>
      <stop offset="1" stop-color="#b87251"/>
    </linearGradient>
    <linearGradient id="palm02-leaf-gradient-2" x1="44.3" y1="7.9" x2="67" y2="7.9" xlink:href="#palm02-leaf-gradient"/>
    <linearGradient id="palm02-shade-gradient" x1="73.9" y1="53" x2="73.9" y2="20.4" gradientUnits="userSpaceOnUse">
      <stop offset="0" stop-color="#c0b3d4"/>
      <stop offset=".5" stop-color="#d1becd"/>
      <stop offset="1" stop-color="#e3cac7"/>
    </linearGradient>
    <linearGradient id="palm02-leaf-gradient-3" x1="0" y1="11.1" x2="62.4" y2="11.1" xlink:href="#palm02-leaf-gradient"/>
    <linearGradient id="palm02-leaf-gradient-4" x1="87.4" y1="48.9" x2="87.4" y2="14.1" xlink:href="#palm02-leaf-gradient"/>
    <linearGradient id="palm02-leaf-light-gradient" x1="90.1" y1="48.9" x2="90.1" y2="13.7" gradientUnits="userSpaceOnUse">
      <stop offset="0" stop-color="#c2ba13"/>
      <stop offset=".6" stop-color="#a6a627"/>
      <stop offset="1" stop-color="#9c9f2f"/>
    </linearGradient>
    <linearGradient id="palm02-leaf-gradient-5" x1="57" y1="55" x2="57" y2="4.7" xlink:href="#palm02-leaf-gradient"/>
    <linearGradient id="palm02-leaf-light-gradient-2" x1="50.6" y1="55" x2="50.6" y2="4.7" xlink:href="#palm02-leaf-light-gradient"/>
    <linearGradient id="palm02-mid-right-gradient" x1="73.6" y1="33.1" x2="112.4" y2="33.1" gradientUnits="userSpaceOnUse">
      <stop offset="0" stop-color="#a4a22f"/>
      <stop offset=".3" stop-color="#aea92a"/>
      <stop offset=".7" stop-color="#cabd1d"/>
      <stop offset="1" stop-color="#e2cf13"/>
    </linearGradient>
    <linearGradient id="palm02-mid-left-gradient" x1="38.1" y1="32.7" x2="65.6" y2="32.7" gradientUnits="userSpaceOnUse">
      <stop offset="0" stop-color="#e2cf13"/>
      <stop offset=".3" stop-color="#cabd1d"/>
      <stop offset=".7" stop-color="#aea92a"/>
      <stop offset="1" stop-color="#a4a22f"/>
    </linearGradient>
    <linearGradient id="palm02-mid-left-gradient-2" x1="3.9" y1="9.3" x2="49.2" y2="9.3" xlink:href="#palm02-mid-left-gradient"/>
    <linearGradient id="palm02-mid-left-gradient-3" x1="58.2" y1="6.4" x2="66.5" y2="6.4" xlink:href="#palm02-mid-left-gradient"/>
    <linearGradient id="palm02-mid-left-gradient-4" x1="67.8" y1="10.5" x2="114" y2="10.5" xlink:href="#palm02-mid-left-gradient"/>
    <linearGradient id="palm02-shade-gradient-2" x1="56.5" y1="33.5" x2="56.5" y2="20.6" xlink:href="#palm02-shade-gradient"/>
    <linearGradient id="palm02-shade-gradient-3" x1="93" y1="40.8" x2="93" y2="27.1" xlink:href="#palm02-shade-gradient"/>
    <linearGradient id="palm02-shade-gradient-4" x1="73.4" y1="26.1" x2="73.4" y2="13.7" xlink:href="#palm02-shade-gradient"/>
    <linearGradient id="palm02-shade-gradient-5" x1="96.4" y1="25" x2="96.4" y2="22.2" xlink:href="#palm02-shade-gradient"/>
    <linearGradient id="palm02-shade-gradient-6" x1="51.4" y1="18.6" x2="51.4" y2="10.1" xlink:href="#palm02-shade-gradient"/>
    <linearGradient id="palm02-shade-gradient-7" x1="31.4" y1="20" x2="31.4" y2="2.6" xlink:href="#palm02-shade-gradient"/>
    <linearGradient id="palm02-shade-gradient-8" x1="101.6" y1="15.8" x2="101.6" y2="6.6" xlink:href="#palm02-shade-gradient"/>
    <linearGradient id="palm02-leaf-lighter-gradient" x1="42.7" y1="36.3" x2="42.7" y2="22.4" gradientUnits="userSpaceOnUse">
      <stop offset="0" stop-color="#e2cf13"/>
      <stop offset=".6" stop-color="#c7be27"/>
      <stop offset="1" stop-color="#bdb82f"/>
    </linearGradient>
    <linearGradient id="palm02-leaf-lighter-gradient-2" x1="101.8" y1="37.5" x2="101.8" y2="27.2" xlink:href="#palm02-leaf-lighter-gradient"/>
    <linearGradient id="palm02-leaf-light-gradient-3" x1="23.6" y1="20" x2="23.6" y2="3.8" gradientUnits="userSpaceOnUse">
      <stop offset="0" stop-color="#aeb413"/>
      <stop offset=".5" stop-color="#a7a824"/>
      <stop offset="1" stop-color="#a4a22f"/>
    </linearGradient>
  </defs>
  <path class="palm-leaf-dark" d="M55.5,18.2s4.5,11.9,11,20.2l5-4-3.3,5.2s5.6,7.3,15.5,13.4v-15.5l-4.2-1.6,4.2.8s.7-16.2,0-19.6c-.7-3.5-28.2,1.2-28.2,1.2Z"/>
  <path class="palm-leaf-dark-2" d="M48.2,23.6s3.4,19.1,4.3,21.3c.9,2.3,4.5,7.4,4.5,7.4,0,0,4.6-8.5,5.4-13,.9-4.5,3.2-15.8,3.2-15.8h-17.4Z"/>
  <path class="palm-leaf" d="M62.4,16.4s10.3-9.5,15.4-11.2c5-1.7,23.9.2,26.4,1.6,2.5,1.4,9.8,9.5,9.8,9.5l-8.7-.7-1-5.1-.4,4.9s-9.8.3-14.1.6c-4.3.3-11.4,1.4-11.4,1.4l-3.5-2.2,1.1,2.2s-10.4.3-13.5-1.1Z"/>
  <path class="palm-leaf-dark-3" d="M5.1,19.8s20.9,1.4,28.7,3,22.6-2.3,22.6-2.3l-16-12.7h-13.7L5.1,19.8Z"/>
  <path class="palm-trunk-dark" d="M49.3,167.3s12.2-59.8,12.8-83c.3-10,.3-64.8.3-64.8l1.9-.4s1,59.4,1.3,66.8c.3,7.4-8.1,81.4-8.1,81.4h-8.1Z"/>
  <path class="palm-trunk-light" d="M62.4,42.2s.6,1.3,1.2,2.1c.6.9.5,36.2,0,41.6-.5,5.3-1.2,12.2-1.2,12.2l-1.5,1s.7-8,1.2-14.7.3-42.1.3-42.1Z"/>
  <path class="palm-leaf-2" d="M67,15.8s-2-13.1-3.7-15.4c-1.7-2.3-19,5.7-19,5.7l13.1,6.3,9.6,3.4Z"/>
  <path class="palm-shade" d="M65.6,37.2l4.1-9.3s1.5,1.4,5.9,8c4.4,6.6,8,17.1,8,17.1v-15.5l-4.2-1.6,4.2.8v-3.2l-1.6-7.9-14.3-5.2-3.6,6.6.5,8.8,1,1.4Z"/>
  <path class="palm-leaf-3" d="M62.4,13.9S45.7,3.9,39.5,1.9C33.3,0,12.5,9.8,0,19.9c0,0,14.5.3,23.9,0l4.1-5.7-1.3,5.7s10.5.1,17.7.6,18.1-2.5,18.1-2.5v-4Z"/>
  <path class="palm-leaf-4" d="M62.4,17.9s18.6-4.9,24.2-3.5c5.7,1.4,18,10.4,18,10.4h-4.9l6,2.5s4.7,8.4,6.6,21.7l-15.4-5.8-2.4-2.4-3,.2s-16.9-15.8-18.2-16.7c-1.2-.8-10.9-3.5-10.9-3.5v-2.8Z"/>
  <path class="palm-leaf-light" d="M72.9,17.2s10,2.6,13.8,4.6c3.8,1.9,25.7,27.1,25.7,27.1,0,0-1.5-11-6.6-21.7l-5.4-2.2,4.4-.2s-11.7-8.7-18-10.4-18.9,0-18.9,0l5.1,2.8Z"/>
  <path class="palm-leaf-5" d="M65.6,14.1s-5.4-7.8-11.8-9.5c0,0-5.2-.4-10.9,8.9l6.4,2.8h-7.3s-5.9,14-6.4,19.9c-.4,6,2,18.7,2,18.7,0,0,11.9-11.2,18.3-18.5l-2.8-8.6,5.3,5.6,19.8-21.2s-5.5.2-12.7,1.8Z"/>
  <path class="palm-leaf-light-2" d="M65.6,14.1s-9.2,2.8-12.4,5c-3.2,2.2-11.9,15.3-13,18.9-1.1,3.6-2.5,17-2.5,17,0,0-2.3-11.9-2-18.7.2-6.8,6.4-19.9,6.4-19.9h7.3l-6.4-2.8s2.5-7.1,10.9-8.9c0,0,8.7,1.9,11.8,9.5Z"/>
  <path class="palm-mid-right" d="M73.6,17.4s9.9,2.4,13.7,4.3c3.8,1.9,17.5,17.4,17.5,17.4l7.5,9.7-15.6-17.4s-7.9-8.4-9.7-9.3c-1.8-.9-13.5-4.9-13.5-4.9Z"/>
  <path class="palm-mid-left" d="M38.1,51.2s1.8-10.5,2.6-13.2c.7-2.7,12.2-17.2,13.9-18.9,1.7-1.6,11-5,11-5,0,0-9.5,3-12.7,5-3.2,2-12,16.6-12.7,18.6-.8,2-2.1,13.5-2.1,13.5Z"/>
  <path class="palm-mid-left-2" d="M3.9,16.9S26.4,3.8,33.7,2.8c7.3-1,15.5,3.6,15.5,3.6,0,0-8-4.3-10.8-4.8S23.4,3.4,3.9,16.9Z"/>
  <path class="palm-mid-left-3" d="M58.2.7s3.5-.4,4.7.4c1.2.8,3.6,11.7,3.6,11.7,0,0-1.7-11-3.2-12.4-1-1-5.1.3-5.1.3Z"/>
  <path class="palm-mid-left-4" d="M67.8,11.8s9.4-5.6,12.5-6.4c3.1-.8,21.5.6,23.6,1.7,2.1,1,10.1,9.3,10.1,9.3,0,0-7.6-8.2-9.8-9.5s-20.8-3.4-26.4-1.6c-5.5,1.8-10.1,6.6-10.1,6.6Z"/>
  <polygon class="palm-shade-2" points="58.5 33.5 50.3 24.2 53.2 20.6 62.8 29 58.5 33.5"/>
  <polygon class="palm-shade-3" points="92.6 27.1 91.5 40.8 94.5 40.6 94.1 28.7 92.6 27.1"/>
  <path class="palm-shade-4" d="M75.6,26.1l-.2-8.2,2.6-4.3h-.9l-8.3,8.9s3.7,1.1,4.1,1.4c.4.3,2.7,2.2,2.7,2.2Z"/>
  <polygon class="palm-shade-5" points="100.3 25 90.6 24.2 88.2 22.2 100.8 22.2 104.7 24.7 100.3 25"/>
  <path class="palm-shade-6" d="M42.9,13.6l11,5,6-2.5-14.9-6s-1.6,2.2-2.1,3.5Z"/>
  <path class="palm-shade-7" d="M26.7,19.8l3.3-16s2.8-1.5,6.1-1.1l-1.2,17.3-8.2-.2Z"/>
  <path class="palm-shade-8" d="M103.9,15.6l.8-7.9s-1.4-.9-3.1-1.1l-3.2,9.2,5.5-.2Z"/>
  <path class="palm-leaf-lighter" d="M35.7,35.5l5.2.8,8.9-13.5-10.3-.4s-3.7,9.9-3.8,13.1Z"/>
  <path class="palm-leaf-lighter-2" d="M105.7,27.2h-11.9c0,0,8.5,9.1,8.5,9.1l7.5,1.2s-2-7.1-4.1-10.3Z"/>
  <path class="palm-leaf-light-3" d="M20.6,7.9l-3.4,12.1h6.6c0-.1,4.1-5.8,4.1-5.8l1.9-10.3s-6.3,1.4-9.3,4.1Z"/>
</svg>