<?xml version="1.0" encoding="UTF-8"?>
<svg xmlns="http://www.w3.org/2000/svg" version="1.1" viewBox="0 0 78.5 32">
  <defs>
    <style>
      .cls-1 {
        fill: #fff;
        mix-blend-mode: overlay;
        opacity: .2;
      }

      .cls-2 {
        fill: #8a9644;
      }

      .cls-3 {
        fill: #a9b23f;
      }

      .cls-4, .cls-5 {
        isolation: isolate;
      }

      .cls-6 {
        fill: #d4d32d;
      }

      .cls-7 {
        fill: #bac13f;
      }

      .cls-5 {
        mix-blend-mode: multiply;
        opacity: .2;
      }
    </style>
  </defs>
  <!-- Generator: Adobe Illustrator 28.7.2, SVG Export Plug-In . SVG Version: 1.2.0 Build 154)  -->
  <g class="cls-4">
    <g id="Calque_1">
      <g id="Plant_3">
        <path id="leaf_5" class="cls-7" d="M39.8,29.1s2.5-8.9,4.8-13.8c2.3-4.9,15.6-14.5,15.6-14.5,0,0-1,4.7-2.9,8.3l-5,.3,4.3.8s-1.9,8.4-6,12.7c-4.1,4.3-8.8,4.6-8.8,4.6l-2.1,1.7h0Z"/>
        <g id="leaf_4">
          <path id="dark" class="cls-2" d="M18.5,0s2.6,5.2,7.1,11.1c4.5,6,9.3,10.5,9.3,10.5l5.6-2.3-1.7-6.8S25.1,2.1,18.5,0Z"/>
          <path id="main" class="cls-7" d="M39.5,28.8s3-12.3,2.3-14.9c-.7-2.6-11.2-9.6-23.3-14,0,0,5.4,6.9,7,8.8l4.7-2-3.8,2.9,6.8,6.6,5.7-1-6.1,2.3.3,2,4.7.8h-4.3c0,.1,1.4,4.3,5.9,8.6Z"/>
          <path id="shadow" class="cls-5" d="M26.3,9.6l4.8-3.6,1,.6-3.4,5.4-2.4-2.4ZM32.1,15.2l9.3-1.1-2.7,1.2-5.6,1-1-1h0Z"/>
          <polygon id="white" class="cls-1" points="30.8 5.8 25.5 8.8 22.9 5.6 28.7 4.6 30.8 5.8"/>
          <path id="lighter" class="cls-7" d="M40.6,12.6c2.3,2.9-1.1,16.2-1.1,16.2,0,0,3.2-11.7,2.3-14.9-.8-3.1-8.8-7.7-15.6-10.7,0,0,12.1,6.4,14.4,9.3Z"/>
        </g>
        <g id="leaf_3">
          <path id="light" class="cls-7" d="M38.7,28.2s-8.5-12.5-13.8-16C19.6,8.7,0,19.3,0,19.3l23.5-3.2,14.3,12.8h.9s-.1-.7-.1-.7h0Z"/>
          <path id="main-2" data-name="main" class="cls-3" d="M38.8,29s-9.6-13.7-14-14.5c-4.3-.8-24.9,4.8-24.9,4.8l7.8,4,5.3-5.5-3.9,5.7,7.7,1.3,5.9-6.3-4.6,6.8,1.2.5,5.3-7.3-3.5,7.6s12.4,2.8,17.5,2.9h0Z"/>
          <polygon id="shadow-2" data-name="shadow" class="cls-5" points="9.2 23.5 11.7 23.9 16.5 15.5 14.7 15.5 9.2 23.5"/>
          <path id="white-2" data-name="white" class="cls-1" d="M25,14.3l-2.7-2.9s-3.1,0-6,.9l1.9,2.4s3.9-.5,6.9-.5Z"/>
          <path id="lighter-2" data-name="lighter" class="cls-6" d="M37.3,26.9s-10.2-11.4-12.6-12.2c-2.4-.8-15,2.5-15.8,2.7s-8.8,1.9-8.8,1.9c0,0,7.4-2,8.8-2.7s12.6-3.2,16.2-2.3c3.6.9,12.2,12.6,12.2,12.6Z"/>
        </g>
        <g id="leaf_2">
          <path id="main-3" data-name="main" class="cls-3" d="M38.2,29.4s14.8-13.4,19-15.9c4.2-2.5,21.2-6.3,21.2-6.3l-3.7,3.2h-4.9c0,.1,3.8,1.4,3.8,1.4,0,0-10.6,8.2-11.7,9.3l-1.7.2-1.4,1.3s-3,3.3-7.1,5.1c-4.1,1.8-13.6,1.6-13.6,1.6h0s0,0,0,0Z"/>
          <path id="shadow-3" data-name="shadow" class="cls-5" d="M55.6,25.5l-5.1-6.8-2,1.7,4.8,6.6,2.3-1.5ZM62,21.1l-5.3-7,3.6,7.2,1.7-.2ZM64.2,11.1l8,1.8,1.6-1.2-3.8-1.3-2.8-.2-3,.9h0Z"/>
          <path id="white-3" data-name="white" class="cls-1" d="M56.7,14.1l5.3,7,4-3.3-5.2-5.7s-2.8,1-4.1,2h0Z"/>
          <path id="lighter-3" data-name="lighter" class="cls-6" d="M41.3,26.7s12.9-11,16.2-12.9c3.3-1.9,21-6.7,21-6.7,0,0-16.3,3.5-20.8,6-4.5,2.5-14.7,11.7-16.4,13.5Z"/>
        </g>
        <g id="leaf_1">
          <path id="main-4" data-name="main" class="cls-3" d="M41.4,26.8l1.5-3.1-.3,3,12.7,4.7.3-7.1,1.6,7.7c6.7.2,15.2-.9,15.2-.9-3.1-7.3-8.8-13.5-8.8-13.5l-6,3,4.5-3.9s-14.7-4.1-17.5-1.8c-2.7,2.2-5.4,12.4-5.5,13h0l2.3-1.2Z"/>
          <path id="light-2" data-name="light" class="cls-7" d="M39.1,28c.2-.5,3.4-7.6,4.5-8.3s3.9-1.5,10.1.5c6.2,2,18.7,10.8,18.7,10.8-3.1-7.3-8.8-13.4-8.8-13.4l-6,3,4.5-3.9s-14.8-4.2-17.6-1.8c-2.7,2.2-5.4,13.1-5.4,13.1Z"/>
          <path id="shadow-4" data-name="shadow" class="cls-5" d="M50.1,29.5l4.3-9,1.3.5-.4,10.5-5.2-2ZM61.1,16.5l-4.8,4.6.4.2,5.4-4.5-1-.3ZM40.1,27.5l3.4-7.2,1.8-1-3.8,7.5-1.4.7Z"/>
          <path id="white-4" data-name="white" class="cls-1" d="M56.4,21.2l-6.2-2.4,3.2-4s5.4,1,7.8,1.7l-4.8,4.6h0Z"/>
          <path id="lighter-4" data-name="lighter" class="cls-6" d="M72.5,31.1s-5.6-4.4-10.3-7.1c-4.6-2.8-9.7-4.8-12.5-5.3-2.8-.4-5.7.3-6.7,1.1-1.1.8-3.8,8.2-3.8,8.2,0,0,2.7-6.4,4.4-7.6s7.2-.8,9.7-.3c2.5.5,10.2,5.4,11.3,5.9,1.1.5,8.1,5.1,8.1,5.1Z"/>
        </g>
      </g>
    </g>
  </g>
</svg>