<?xml version="1.0" encoding="UTF-8"?>
<svg xmlns="http://www.w3.org/2000/svg" xmlns:xlink="http://www.w3.org/1999/xlink" version="1.1" viewBox="0 0 42.4 19.8">
  <defs>
    <style>
      .cls-1 {
        fill: #b68d83;
      }

      .cls-1, .cls-2, .cls-3, .cls-4, .cls-5 {
        fill-rule: evenodd;
      }

      .cls-6 {
        fill: #d8c8c2;
      }

      .cls-7 {
        isolation: isolate;
      }

      .cls-2 {
        fill: #cfbaae;
      }

      .cls-3 {
        fill: url(#_ГӮГҒ_ГҸ_ГҢГҢ_ГҲ_ГӢГӮГҢГҡ_205-2);
      }

      .cls-3, .cls-4 {
        mix-blend-mode: multiply;
        opacity: .5;
      }

      .cls-4 {
        fill: url(#_ГӮГҒ_ГҸ_ГҢГҢ_ГҲ_ГӢГӮГҢГҡ_205);
      }

      .cls-8 {
        fill: #e7ddd6;
      }

      .cls-5 {
        fill: #c09e8e;
      }
    </style>
    <linearGradient id="_ГӮГҒ_ГҸ_ГҢГҢ_ГҲ_ГӢГӮГҢГҡ_205" data-name="ВЎГӮГҒЛҡГҸЛҮГҢГҢЛҡГҲ вҖһпЈҝвҖЎвҖ°ГӢГӮГҢГҡ 205" x1="30.9" y1="18.7" x2="30.9" y2="14.1" gradientUnits="userSpaceOnUse">
      <stop offset="0" stop-color="#b69a9a"/>
      <stop offset=".5" stop-color="#c1abaa"/>
      <stop offset="1" stop-color="#cdbdba"/>
    </linearGradient>
    <linearGradient id="_ГӮГҒ_ГҸ_ГҢГҢ_ГҲ_ГӢГӮГҢГҡ_205-2" data-name="ВЎГӮГҒЛҡГҸЛҮГҢГҢЛҡГҲ вҖһпЈҝвҖЎвҖ°ГӢГӮГҢГҡ 205" x1="22.7" y1="19.8" x2="22.7" y2="2.2" xlink:href="#_ГӮГҒ_ГҸ_ГҢГҢ_ГҲ_ГӢГӮГҢГҡ_205"/>
  </defs>
  <!-- Generator: Adobe Illustrator 28.7.1, SVG Export Plug-In . SVG Version: 1.2.0 Build 142)  -->
  <g class="cls-7">
    <g id="Calque_1">
      <path id="back" class="cls-5" d="M39.3,17.8L3.3,19.8l-3.3-1.8L5.9,6.6S25.4-1,37.6.1l4.5,12.8.3,4.4-3.1.5Z"/>
      <polygon id="shadow" class="cls-4" points="22.9 18.7 22.5 17.4 29.6 14.1 39.3 17.8 22.9 18.7"/>
      <polygon id="side" class="cls-1" points="20.5 9.1 22.5 17.4 29.6 14.1 34 5 32.1 5.4 20.5 9.1"/>
      <path id="angle" class="cls-2" d="M5.9,6.6s5.4,2.3,15,2.1c9.6-.2,17.4-6.5,17.4-6.5l-.7-2.1S23.4-1.4,5.9,6.6Z"/>
      <path id="top" class="cls-6" d="M5.9,6.6S14.6,2.2,22.8,1.2c0,0,7.2,1.2,11.2,3.8,0,0-6.5,3.7-14.3,4.2,0,0-9.2.4-13.8-2.7Z"/>
      <path id="shadow-2" data-name="shadow" class="cls-3" d="M34,5l-4.4,9.1-7.1,3.3-19.2,2.5,35.9-2,1.8-4.1,1-.8-3.7-10.7c-1.9,1.6-4.3,2.8-4.3,2.8Z"/>
      <polygon id="edge" class="cls-8" points="18.2 9.2 23.4 8.7 20.8 10.5 18.2 9.2"/>
    </g>
  </g>
</svg>