<?xml version="1.0" encoding="UTF-8"?>
<svg xmlns="http://www.w3.org/2000/svg" version="1.1" viewBox="0 0 42.1 63.8">
  <defs>
    <style>
      .cls-1 {
        fill: #ae7471;
      }

      .cls-2 {
        fill: #875b6a;
        isolation: isolate;
      }

      .cls-3 {
        fill: #d3936e;
      }

      .cls-4 {
        fill: #f4b771;
      }
    </style>
  </defs>
  <!-- Generator: Adobe Illustrator 28.7.0, SVG Export Plug-In . SVG Version: 1.2.0 Build 136)  -->
  <g>
    <g id="Calque_1">
      <path id="back" class="cls-1" d="M0,63.8l4.6-23.1,2-2.7,4.8-24.8L20.3,0s7.9,2.3,11.5,6.6v22.2l3.3,4,7.1,23.4v7.5L0,63.9h0Z"/>
      <path id="angle" class="cls-3" d="M11.4,13.2l-4.8,24.8,2.4,4.1h8l4.5-9L30.3,5.1s-3.9-3.5-10-5.1c0,0-8.3,10.1-8.9,13.2Z"/>
      <polygon id="shadow" class="cls-2" points="17 42.1 17 62.3 14.1 63.8 25 62.9 36.4 56.2 37.3 40.1 35.1 32.8 31.7 34.6 24.9 51.8 24.9 36.1 31.8 28.8 31.8 6.6 30.3 5.1 21.5 33.1 17 42.1"/>
      <path id="top" class="cls-4" d="M31.8,28.8l-6.9,7.3,6.8-1.5,3.4-1.8-3.3-4ZM4.6,40.7l4.4,1.4-2.4-4.1-2,2.7ZM26.2,12.5l4.1-7.4s-3.2-3.9-10-5.1c0,0-8.2,9.2-8.9,13.2l14.8-.7Z"/>
    </g>
  </g>
</svg>