<?xml version="1.0" encoding="UTF-8"?>
<svg xmlns="http://www.w3.org/2000/svg" version="1.1" viewBox="0 0 47.5 14.5">
  <defs>
    <style>
      .cls-1 {
        fill: #b68d83;
      }

      .cls-1, .cls-2, .cls-3 {
        fill-rule: evenodd;
      }

      .cls-4 {
        fill: #d8c8c2;
      }

      .cls-2 {
        fill: #cfbaae;
      }

      .cls-5 {
        fill: #e7ddd6;
      }

      .cls-3 {
        fill: #c09e8e;
      }
    </style>
  </defs>
  <!-- Generator: Adobe Illustrator 28.7.1, SVG Export Plug-In . SVG Version: 1.2.0 Build 142)  -->
  <g>
    <g id="Calque_1">
      <path id="back" class="cls-3" d="M0,12.9l.7,1.6h11.4l24.8-1.7,3.4.5,6.1-1.7,1.1-5-9.4-1.6L34.5.1C22.9,0,8.5,3.8,8.5,3.8L2.8,8,0,12.9Z"/>
      <polygon id="side" class="cls-1" points="27.4 6.1 28.3 12.6 26.7 13.5 32.8 13 32.6 9.9 41.2 9.9 40.3 13.3 46.4 11.6 47.5 6.6 38.1 5.1 34.5 .1 27.4 6.1"/>
      <path id="angle" class="cls-2" d="M8.5,3.8S4,6.5,2.8,8c0,0,10.4.7,17,0,6.6-.7,14.2-4.6,14.2-4.6l.5-3.2s-11.3-1.2-26,3.7Z"/>
      <path id="angle-2" data-name="angle" class="cls-2" d="M38.1,5.1l-2.8,3.1-2.6,1.8s6.4.2,8.6,0c2.2-.2,6.3-3.3,6.3-3.3l-9.4-1.6Z"/>
      <path id="top" class="cls-4" d="M2.8,8s1.3-1.6,5.7-4.1l19.2,1.2,6.4-1.8s-6.7,3.7-12.5,4.7c0,0-10.9.7-18.7,0Z"/>
      <path id="top-2" data-name="top" class="cls-4" d="M35.2,8.1l2.8-3.1,9.4,1.6s-4,1.3-12.3,1.5Z"/>
      <polygon id="edge" class="cls-5" points="25.2 7.1 27.6 7.6 29 5.7 25.2 7.1"/>
      <polygon id="edge-2" data-name="edge" class="cls-5" points="39.8 10 40.9 11 42.7 9.5 39.8 10"/>
    </g>
  </g>
</svg>