<?xml version="1.0" encoding="UTF-8"?>
<svg id="rock-8" xmlns="http://www.w3.org/2000/svg" version="1.1" viewBox="0 0 27.5 18.1">
  <!-- Generator: Adobe Illustrator 29.4.0, SVG Export Plug-In . SVG Version: 2.1.0 Build 152)  -->
  <defs>
    <style>
      .st0 {
        fill: #d0c6c3;
      }

      .st1 {
        fill: #a69f9e;
      }

      .st2 {
        fill: #807e7f;
      }

      .st3 {
        fill: #bbb1ae;
      }

      .st4 {
        fill: #e4d9d5;
      }
    </style>
  </defs>
  <path id="rock-500" class="st1" d="M.6,7.2L7.3.7l8.9-.7s6.9,4.4,9.7,8.7l1.5,5.7-11.2,3.3-13.7.3L0,16,.6,7.2Z"/>
  <path id="rock-600" class="st2" d="M13.3,9.4l2.9,8.3,11.2-3.3-1.5-5.7s-1.5-2.3-4.8-5.1l-7.8,5.7h0Z"/>
  <path id="rock-400" class="st3" d="M.6,7.2s.6,2.1,8.5,2.2c7.9.1,11.9-5.7,11.9-5.7l-4-3.7s-6.5-.3-9.7.7C4.1,1.8.6,7.2.6,7.2Z"/>
  <path id="rock-300" class="st0" d="M.6,7.2S2.7,3.1,6.3,1.2l14.8,2.4s-1.2,2.9-7.8,5.7c0,0-10.1,1.1-12.7-2.2h0Z"/>
  <polygon id="rock-200" class="st4" points="11.2 9.6 13.8 10.7 15.2 8.5 11.2 9.6"/>
</svg>