<?xml version="1.0" encoding="UTF-8"?>
<svg id="rock-10" xmlns="http://www.w3.org/2000/svg" version="1.1" viewBox="0 0 47.5 14.5">
  <!-- Generator: Adobe Illustrator 29.4.0, SVG Export Plug-In . SVG Version: 2.1.0 Build 152)  -->
  <defs>
    <style>
      .st0 {
        fill: #d0c6c3;
      }

      .st1 {
        fill: #a69f9e;
      }

      .st2 {
        fill: #807e7f;
      }

      .st3 {
        fill: #bbb1ae;
      }

      .st4 {
        fill: #e4d9d5;
      }
    </style>
  </defs>
  <path id="rock-500" class="st1" d="M0,12.9l.7,1.6h11.4l24.8-1.7,3.4.5,6.1-1.7,1.1-5-9.4-1.6L34.5.1c-11.6-.1-26,3.7-26,3.7l-5.7,4.2L0,12.9Z"/>
  <polygon id="rock-600" class="st2" points="27.4 6.1 28.3 12.6 26.7 13.5 32.8 13 32.6 9.9 41.2 9.9 40.3 13.3 46.4 11.6 47.5 6.6 38.1 5.1 34.5 .1 27.4 6.1"/>
  <path id="rock-400" class="st3" d="M8.5,3.8s-4.5,2.7-5.7,4.2c0,0,10.4.7,17,0,6.6-.7,14.2-4.6,14.2-4.6l.5-3.2s-11.3-1.2-26,3.7h0ZM38.1,5.1l-2.8,3.1-2.6,1.8s6.4.2,8.6,0,6.3-3.3,6.3-3.3l-9.4-1.6h-.1Z"/>
  <path id="rock-300" class="st0" d="M2.8,8s1.3-1.6,5.7-4.1l19.2,1.2,6.4-1.8s-6.7,3.7-12.5,4.7c0,0-10.9.7-18.7,0h-.1ZM35.2,8.1l2.8-3.1,9.4,1.6s-4,1.3-12.3,1.5h0Z"/>
  <path id="rock-200" class="st4" d="M25.2,7.1l2.4.5,1.4-1.9-3.8,1.4ZM39.8,10l1.1,1,1.8-1.5-2.9.5Z"/>
</svg>