<?xml version="1.0" encoding="UTF-8"?>
<svg id="rock-1" xmlns="http://www.w3.org/2000/svg" version="1.1" viewBox="0 0 50.9 19">
  <!-- Generator: Adobe Illustrator 29.4.0, SVG Export Plug-In . SVG Version: 2.1.0 Build 152)  -->
  <defs>
    <style>
      .st0 {
        fill: #fbf0eb;
      }

      .st1 {
        fill: #a69f9e;
      }

      .st2 {
        fill: #585a5f;
      }

      .st3 {
        display: none;
        fill: #48a6d9;
        isolation: isolate;
        opacity: .2;
      }

      .st4 {
        fill: #e4d9d5;
      }
    </style>
  </defs>
  <polygon id="rock-500" class="st1" points="0 15.4 9.7 1.9 15.9 1.4 36.8 0 41.7 3.3 50.9 19 22.7 19 19 16.7 0 15.4"/>
  <path id="rock-200" class="st4" d="M9.7,1.9l2.2,3.9,19.4,3.7,10.4-6.2L36.8,0s-15.2-.2-27.1,1.9Z"/>
  <path id="rock-800" class="st2" d="M50.9,19l-9.2-15.7-10.4,6.2.2,7-8.8,2.5M19,16.7l3-9-10.1-1.9-3.7,8.2L0,15.4l18,1.3s1,0,1,0Z"/>
  <polygon id="rock-100" class="st0" points="29.9 9.2 32.9 8.5 31.3 11.3 29.9 9.2"/>
  <polygon id="rock-fade" class="st3" points="0 15.4 9.7 1.9 15.9 1.4 36.8 0 41.7 3.3 50.9 19 22.7 19 19 16.7 0 15.4"/>
</svg>