<?xml version="1.0" encoding="UTF-8"?>
<svg id="rock-3" xmlns="http://www.w3.org/2000/svg" version="1.1" viewBox="0 0 46.5 34.6">
  <!-- Generator: Adobe Illustrator 29.4.0, SVG Export Plug-In . SVG Version: 2.1.0 Build 152)  -->
  <defs>
    <style>
      .st0 {
        fill: #fbf0eb;
      }

      .st1 {
        fill: #a69f9e;
      }

      .st2 {
        fill: #585a5f;
      }

      .st3 {
        display: none;
        fill: #48a6d9;
        isolation: isolate;
        opacity: .2;
      }

      .st4 {
        fill: #bbb1ae;
      }

      .st5 {
        fill: #e4d9d5;
      }
    </style>
  </defs>
  <path id="rock-500" class="st1" d="M46.5,32.6v-5.9l-5.1-4.7-2.2-12.5L28,.9s-8.4-2.3-14.8,2.4l-4.4,21.6-6,1.8-2.8,7.2,28.4.4s18.1-1.7,18.1-1.7Z"/>
  <path id="rock-400" class="st4" d="M8.8,24.8l8.2-.9,4.2-5.5,5.6-5.2,12.4-3.7L28,.9s-8.8-2.4-14.8,2.4c0,0-4.4,21.5-4.4,21.5Z"/>
  <polygon id="rock-800" class="st2" points="26.8 13.2 25.3 25.1 10.8 28.5 10.7 34.1 28.4 34.3 46.5 32.6 46.5 26.7 39.2 25.1 41.4 22 39.2 9.5 26.8 13.2"/>
  <path id="rock-200" class="st5" d="M2.8,26.7l8,1.8,14.5-3.4-8.3-1.2-8.2.9s-6,1.9-6,1.9ZM26.8,13.2l12.4-3.7L28,.9s-9.9-3-14.8,2.4l13.6,9.9Z"/>
  <path id="rock-100" class="st0" d="M23.4,10.8l6.3,1.6-3.3,3.5s-3-5.1-3-5.1ZM8.6,28h4.4l-2.2,1.9-2.2-1.9Z"/>
  <path id="rock-fade" class="st3" d="M46.5,32.6v-5.9l-5.1-4.7-2.2-12.5L28,.9s-8.4-2.3-14.8,2.4l-4.4,21.6-6,1.8-2.8,7.2,28.4.4s18.1-1.7,18.1-1.7Z"/>
</svg>