<svg xmlns="http://www.w3.org/2000/svg" xmlns:xlink="http://www.w3.org/1999/xlink" version="1.1" viewBox="0 0 33.3 22.7">
  <defs>
    <style>
      .rock-top {
        fill: url(#rock02-top-gradient);
      }
      .rock-back {
        fill: url(#rock02-back-gradient);
      }
      .rock-face {
        fill: url(#rock02-face-gradient);
      }
      .rock-edge {
        fill: #ffb565;
      }
      .rock-shade {
        fill: url(#rock02-shade-gradient);
        mix-blend-mode: multiply;
      }
    </style>
    <linearGradient id="rock02-back-gradient" x1="16.7" y1="22.7" x2="16.7" y2="0" gradientUnits="userSpaceOnUse">
      <stop offset="0" stop-color="#b87251"/>
      <stop offset=".2" stop-color="#a76656"/>
      <stop offset=".7" stop-color="#8b535f"/>
      <stop offset="1" stop-color="#814c63"/>
    </linearGradient>
    <linearGradient id="rock02-face-gradient" x1="17.4" y1="11.8" x2="17.4" y2="0" gradientUnits="userSpaceOnUse">
      <stop offset="0" stop-color="#b87251"/>
      <stop offset=".6" stop-color="#d2875d"/>
      <stop offset="1" stop-color="#dd9063"/>
    </linearGradient>
    <linearGradient id="rock02-top-gradient" x1="25.5" y1="13" x2="25.5" y2="11.4" gradientUnits="userSpaceOnUse">
      <stop offset="0" stop-color="#eb9552"/>
      <stop offset=".6" stop-color="#f0a85d"/>
      <stop offset="1" stop-color="#f4b363"/>
    </linearGradient>
    <linearGradient id="rock02-shade-gradient" x1="16.7" y1="22.7" x2="16.7" y2="10.4" gradientUnits="userSpaceOnUse">
      <stop offset="0" stop-color="#c0b3d4"/>
      <stop offset=".5" stop-color="#d1becd"/>
      <stop offset="1" stop-color="#e3cac7"/>
    </linearGradient>
  </defs>
  <polygon class="rock-back" points="33.3 21 30.8 11.6 27.5 11.4 14.6 0 7.3 3.3 0 22.7 33.3 21"/>
  <path class="rock-face" d="M7.3,3.3l3.3,7.1s12.1,2.4,16.9,1.1L14.6,0l-7.3,3.3Z"/>
  <polygon class="rock-top" points="27.5 11.4 20.1 11.8 27.5 13 30.8 11.6 27.5 11.4"/>
  <polygon class="rock-shade" points="10.6 10.4 8.4 21 0 22.7 33.3 21 30.8 11.6 27.5 13 26.1 18.9 18.3 20.3 20.1 11.8 10.6 10.4"/>
  <polygon class="rock-edge" points="26 12.7 28 12.7 27.3 13.7 26 12.7"/>
  <polygon class="rock-edge" points="10.2 9.6 12.3 10.7 10.6 11.4 10.2 9.6"/>
</svg>