<?xml version="1.0" encoding="UTF-8"?>
<svg id="rock-7" xmlns="http://www.w3.org/2000/svg" version="1.1" viewBox="0 0 87.7 121.1">
  <!-- Generator: Adobe Illustrator 29.4.0, SVG Export Plug-In . SVG Version: 2.1.0 Build 152)  -->
  <defs>
    <style>
      .st0 {
        fill: #a69f9e;
      }

      .st1 {
        fill: #585a5f;
      }

      .st2 {
        display: none;
        fill: #48a6d9;
        isolation: isolate;
        opacity: .2;
      }

      .st3 {
        fill: #807e7f;
      }

      .st4 {
        fill: #bbb1ae;
      }

      .st5 {
        fill: #e4d9d5;
      }
    </style>
  </defs>
  <path id="rock-500" class="st0" d="M0,118.5l9.3-45.3,5.5-2.3,3.8-38.4,4.7-13.9S32.5,6,51.2,0l13.6,8.4,11.2,67,11.1,27.6.6,18.1L0,118.5Z"/>
  <path id="rock-400" class="st4" d="M23.3,18.6l-4.7,13.9-3.8,38.4,5.1,5.4,5.4,9.1,6.9,2.3,14.4-43.2,1.9-.7,6.9-24.3,6.9-4.4,2.5-6.7L51.2,0s-18.3,4.7-27.9,18.6Z"/>
  <path id="rock-800" class="st1" d="M17,77.7l-3.1,40.4,10.6-1.1.8-31.6-4-6.8-4.3-.9ZM46.6,44.5l-14.4,43.2,7.4,32,7.8.2v-57.4c0,0-.8-18-.8-18Z"/>
  <path id="rock-600" class="st3" d="M39.6,119.7l-30.5-.9,15.4-1.8.8-31.6,6.9,2.3,7.4,32ZM71.1,46.4l-6.3-38-2.5,6.7-3,31.9-4.3,11.4.4-38.9-6.9,24.3.4,17.7-1.5,3.3v55.2c0,0,19.2.6,19.2.6l7.9-35.1-3.3-39h0ZM32.2,72.8l.8-11.3,3.8-6.7,6.4-17.3-6.9,22.8-4.1,12.5Z"/>
  <path id="rock-200" class="st5" d="M9.3,73.2l7.7,4.5,4.3.9-1.7-3.9-4.8-3.9-5.5,2.3h0ZM23.3,18.6l24.4-.8,14.6-2.7,2.5-6.7L51.2,0s-21.2,4.7-27.9,18.6Z"/>
  <path id="rock-fade" class="st2" d="M0,118.5l9.3-45.3,5.5-2.3,3.8-38.4,4.7-13.9S32.5,6,51.2,0l13.6,8.4,11.2,67,11.1,27.6.6,18.1L0,118.5Z"/>
</svg>