<?xml version="1.0" encoding="UTF-8"?>
<svg xmlns="http://www.w3.org/2000/svg" version="1.1" viewBox="0 0 61.5 59.3">
  <defs>
    <style>
      .cls-1 {
        fill: #ae7471;
      }

      .cls-2 {
        fill: #875b6a;
        isolation: isolate;
      }

      .cls-3 {
        fill: #ffd5a9;
      }

      .cls-4 {
        fill: #d3936e;
      }

      .cls-5 {
        fill: #cda586;
      }

      .cls-6 {
        fill: #f4b771;
      }
    </style>
  </defs>
  <!-- Generator: Adobe Illustrator 28.7.0, SVG Export Plug-In . SVG Version: 1.2.0 Build 136)  -->
  <g>
    <g id="Calque_1">
      <path id="back" class="cls-1" d="M0,53.4l8.8-19.9,4.1-2.4L26.1,3.3s8.1-3.3,14.3-2.7l5.5,23.7,4.9.7,2.6,25.3,8.1,3.2v5.9L0,53.4Z"/>
      <path id="angle" class="cls-4" d="M26.1,3.3l-13.2,27.8-4.1,2.4L1.6,49.8l25.3-4.6,4.9-7.5,4.1-3.9,4.4-18.1V.6s-7-1.8-14.3,2.7h.1ZM45.9,24.3l-2.6,5.6-1.1,5.9,7-2.6,1.6-8.3-4.9-.6Z"/>
      <path id="shadow" class="cls-2" d="M40.4,15.7l2.9,14.2,2.6-5.6L40.4.6v15.1ZM49.2,33.2l-1,16.6-7.8,2.1,1.8-16.1-6.2-2-4.2,3.9-4.8,7.5,1.5,7.4-10.1,1.3H5l56.5,5.4v-5.9l-7,2.3-23.8-2,20.1-1.1,2.6-2.3-2.6-25.4-1.6,8.3ZM49.2,33.2l-1,16.6,2.6,2.8,2.6-2.3-2.6-25.4-1.6,8.3Z"/>
      <path id="light" class="cls-5" d="M13,31.1l17.8-3.4,7.9-15.5,1.7-11.5s-5.9-.7-14.3,2.6l-13.2,27.8h0Z"/>
      <path id="top" class="cls-6" d="M50.8,52.6l-20.1,1.1s20.5,1.8,23.8,2,7-2.3,7-2.3l-8.1-3.1-2.6,2.3ZM26.1,3.3l12,3.6,2.3.2V.6s-7.5-2.6-14.3,2.7Z"/>
      <path id="edge" class="cls-3" d="M46,34.4l3.7-4-.5,2.8-3.2,1.2ZM33.8,35.8l3.1-6-.9,4-2.2,2Z"/>
    </g>
  </g>
</svg>