<?xml version="1.0" encoding="UTF-8"?>
<svg id="rock-9" xmlns="http://www.w3.org/2000/svg" version="1.1" viewBox="0 0 42.4 19.8">
  <!-- Generator: Adobe Illustrator 29.4.0, SVG Export Plug-In . SVG Version: 2.1.0 Build 152)  -->
  <defs>
    <style>
      .st0 {
        fill: #d0c6c3;
      }

      .st1 {
        isolation: isolate;
        opacity: .2;
      }

      .st2 {
        fill: #a69f9e;
      }

      .st3 {
        fill: #807e7f;
      }

      .st4 {
        fill: #bbb1ae;
      }

      .st5 {
        fill: #e4d9d5;
      }
    </style>
  </defs>
  <path id="rock-500" class="st2" d="M39.3,17.8L3.3,19.8l-3.3-1.8L5.9,6.6S25.4-1,37.6.1l4.5,12.8.3,4.4s-3.1.5-3.1.5Z"/>
  <polygon id="rock-shadow" class="st1" points="22.9 18.7 22.5 17.4 29.6 14.1 39.3 17.8 22.9 18.7"/>
  <polygon id="rock-600" class="st3" points="20.5 9.1 22.5 17.4 29.6 14.1 34 5 32.1 5.4 20.5 9.1"/>
  <path id="rock-400" class="st4" d="M5.9,6.6s5.4,2.3,15,2.1c9.6-.2,17.4-6.5,17.4-6.5l-.7-2.1S23.4-1.4,5.9,6.6Z"/>
  <path id="rock-300" class="st0" d="M5.9,6.6S14.6,2.2,22.8,1.2c0,0,7.2,1.2,11.2,3.8,0,0-6.5,3.7-14.3,4.2,0,0-9.2.4-13.8-2.7h0Z"/>
  <path id="rock-shadow1" data-name="rock-shadow" class="st1" d="M34,5l-4.4,9.1-7.1,3.3-19.2,2.5,35.9-2,1.8-4.1,1-.8-3.7-10.7c-1.9,1.6-4.3,2.8-4.3,2.8h0Z"/>
  <polygon id="rock-200" class="st5" points="18.2 9.2 23.4 8.7 20.8 10.5 18.2 9.2"/>
</svg>