<?xml version="1.0" encoding="UTF-8"?>
<svg id="rock-2" xmlns="http://www.w3.org/2000/svg" version="1.1" viewBox="0 0 33.3 22.7">
  <!-- Generator: Adobe Illustrator 29.4.0, SVG Export Plug-In . SVG Version: 2.1.0 Build 152)  -->
  <defs>
    <style>
      .st0 {
        fill: #fbf0eb;
      }

      .st1 {
        fill: #a69f9e;
      }

      .st2 {
        fill: #585a5f;
      }

      .st3 {
        display: none;
        fill: #48a6d9;
        isolation: isolate;
        opacity: .2;
      }

      .st4 {
        fill: #bbb1ae;
      }

      .st5 {
        fill: #e4d9d5;
      }
    </style>
  </defs>
  <polygon id="rock-500" class="st1" points="33.3 21 30.8 11.6 27.5 11.4 14.6 0 7.3 3.3 0 22.7 33.3 21"/>
  <path id="rock-400" class="st4" d="M7.3,3.3l3.3,7.1s12.1,2.3,16.9,1L14.6,0l-7.3,3.3Z"/>
  <polygon id="rock-200" class="st5" points="27.5 11.4 19.6 11.6 27.5 13 30.8 11.6 27.5 11.4"/>
  <polygon id="rock-800" class="st2" points="10.6 10.4 8.4 21 0 22.7 33.3 21 30.8 11.6 27.5 13 26.1 18.9 18.3 20.3 19.6 11.6 10.6 10.4"/>
  <path id="rock-100" class="st0" d="M25.6,12.7h2.9l-1.2,1.3s-1.7-1.3-1.7-1.3ZM10.2,9.5l2.2,1.2-2,1-.2-2.2Z"/>
  <polygon id="rock-fade" class="st3" points="33.3 21 30.8 11.6 27.5 11.4 14.6 0 7.3 3.3 0 22.7 33.3 21"/>
</svg>