<?xml version="1.0" encoding="UTF-8"?>
<svg xmlns="http://www.w3.org/2000/svg" version="1.1" viewBox="0 0 194.4 155.5">
  <defs>
    <style>
      .cls-1 {
        fill: #ffcf9f;
      }

      .cls-2 {
        fill: #cd8863;
      }

      .cls-3 {
        fill: #87808e;
      }

      .cls-4 {
        fill: #c69b7b;
      }

      .cls-5 {
        fill: #93575f;
      }

      .cls-6 {
        fill: #f2ae66;
      }

      .cls-7 {
        fill: #a56966;
      }

      .cls-8 {
        fill: #7c515f;
      }
    </style>
  </defs>
  <!-- Generator: Adobe Illustrator 28.7.0, SVG Export Plug-In . SVG Version: 1.2.0 Build 136)  -->
  <g>
    <g id="Calque_1">
      <g id="Calque_1-2" data-name="Calque_1">
        <g id="rock04">
          <path id="back" class="cls-7" d="M0,145.7l4.6-21.6,3.8-1.5,14.5-44.6h3.9l18-33.4h8l1.9,16.1h5.2l3.7-13.6,22-29,15.9-9.8L121.9,0l16.5,3,3.5,54,3.6,3.3,7.7,26.4,5.5,26.5,1.7-20.3,3.2-28.7,13-27.7,13.8-4.1.3,61,3.7,4.7-.9,57.4-66.6-.9,4.9-6.4-9.7-15s-27.6-5.5-50.3,7.7l-3.8,6s-45.7,1.2-67.6-1.2h-.4Z"/>
          <path id="angle" class="cls-2" d="M27.7,79.8l-5.5,30.4-10.6,16.6,1.9,2.5,15.1-3.5,14.3-38.5-7-4.2-8.2-3.2h0ZM52.8,54.4l-10.1-4.2,2.1-5.6-18,33.4,21.4,5.3,4.7-12.8v-16.1h0ZM129,17.4l-12.1-.8-31.3,1.5-22,29-3.7,13.6,2,22.1,12.3,9,24.8-53,16.4-12.6-2.5,28.4,10.8-2.7s5.3-34.5,5.3-34.5ZM190.7,93.4l-4.9,5.7-2.9,4.6,5.6-3.1,5.9-2.5-3.7-4.7h0ZM181.7,58.1l-4.8,17.9-11.6,46.8-6.9,6.8-.3,16.6,7.4,3.9,7.3-7.7,7.8-51,2.2-2.1,5.9-45.4-7,14.2h0ZM143.8,65.6l-4.4-1.5,1.9,27.5-2.4,23.1-4.7,16.9,17.6,12.6-2.6-39.4-5.4-39.2h0Z"/>
          <path id="front" class="cls-5" d="M131.2,57l-1.5-26.6,5.6-9.6,3.1-17.8,3.5,54-7,2.4-3.7-2.4h0ZM74.4,110.4l9.3,25.3c3.4-1.1,6.8-1.9,10.1-2.4l-6.4-25.9-13,3.1h0ZM74.2,91.8l-12.3-9-2-22.1h-5.2l-1.9-16.1v25.8l11.8,29.2,9.6-7.8ZM190.7,93.4v-24.5c-.1,0-7.5,17.5-7.5,17.5l-.4,2.9,3,9.8s4.9-5.7,4.9-5.7ZM20.4,134.1l-12-4,1.2,16.3s5.4.3,15.3.6l-.9-8.9-3.6-4h0ZM183.5,124.7h0l-.6-21-10.1,38.7v12.8l20.7.3.2-11-10.2-19.8M134.2,131.5l-12.6-29.7-.8-23.9,2.9-26-10.8,2.7-5.8,77.5s7.6-.3,15,1.1l9.7,15,2.4-16.7h0ZM151.8,144.2l-20,4-4.9,6.4,29.3.4,1.9-8.8.6-33-9.5-8.4M54.3,133.6l-6.3-5.7-5-24v-16.7l-2.3,21-4.9,25.5-.7,13.5c8.9,0,20,0,32.9-.3l3.8-6s-17.5-7.3-17.5-7.3Z"/>
          <path id="top" class="cls-6" d="M85.6,18.1l31.3-1.5,12.1.8,9.4-14.4-16.5-3s-30.3,10.2-36.3,18.1ZM176.6,36.5l-13,27.7,18.1-6.1,7-14.2,1.7-11.5s-9.3,1.3-13.8,4.1ZM130.2,61l11.7-4,3.6,3.3-1.7,5.3-13.6-4.6ZM22.9,78l13,5,7,4.2,5.3-3.9-21.4-5.3s-3.9,0-3.9,0ZM44.8,44.6l-2.1,5.6,10.1,4.2v-9.8h-8ZM4.6,124.1l3.8,6,12,4-6.9-4.9-5.1-6.6-3.8,1.5h0Z"/>
          <path id="shadow" class="cls-8" d="M64.6,99.6l-10.3,34,17.5,7.3c4.6-2.9,11.9-5.2,11.9-5.2l-9.3-25.3-.2-18.5-9.6,7.8h0ZM87.4,107.3l6.4,25.9s6-1.2,13.4-1.2l5.8-77.5-25.5,52.7h-.1ZM131.8,148.2l20-4-17.6-12.6-2.4,16.6ZM149.2,104.8l9.5,8.4-5.7-27-7.5-25.9-1.7,5.3,5.4,39.2ZM42.9,87.2v16.7l5.1,24-2.9-26.5,3.1-18.1s-5.3,3.9-5.3,3.9ZM24,138.1l4.6-12.4,14.3-38.5-2.2,21-4.9,25.5-.7,13.5h-10.2c0-.1-.9-9.1-.9-9.1Z"/>
          <path id="cracks" class="cls-5" d="M65.9,47.2l3.8-5.2,13.2-14.8-4.7,9.9-5.4,6.5s-6.9,3.6-6.9,3.6ZM64.3,51.3l-1.5,4.6,3.7-5.8-2.2,1.2ZM74.2,91.8l2.6-10.9,10.4-19.3,5.3-8.8-18.3,39ZM172.6,116.7v-9.9l4.4-17.5-4.4,27.4ZM170,121.1l-1.1,2.6v5.8c.1,0,.1,4.1.1,4.1l1.1-5.6v-6.9h-.1ZM50.7,95.7l-2.7,8,1.4.7-.7,6.2,2-6.7v-8.2Z"/>
          <path id="edges" class="cls-1" d="M123.7,17l4.3-1.7,5.9-5.4-4.9,7.5-5.3-.4ZM39.3,85.1l5.7.6-2.1,1.5s-3.6-2.1-3.6-2.1ZM5.6,125.7l5.3,5.3-2.3,1.3-3-6.5h0ZM184.1,103l5.4-4,4.9-.9-10.3,4.9h0ZM176.3,119.3l-2,5.5-.6,11.4s2.6-16.9,2.6-16.9ZM140.2,64.4l2.8-.2,1.9-2.1-1.1,3.5-3.6-1.2h0Z"/>
          <path id="light" class="cls-4" d="M22.9,78l-14.5,44.6,3.2,4.2,10.6-16.6,5.5-30.4s-4.8-1.8-4.8-1.8ZM163.6,64.2l-3.2,28.7-1.7,20.3-.3,16.4,6.9-6.8,16.4-64.7-18.1,6.1h0ZM87.4,107.3l-13,3.1-.2-18.5,24.8-53,16.4-12.6-2.5,28.4-25.5,52.7h0ZM121.6,101.8l12.6,29.8,4.7-16.9,2.4-23.1-1.9-27.5-9.2-3.1-8.6,40.8Z"/>
          <path id="side" class="cls-3" d="M183.2,86.4l7.2-54,.2,36.5-7.4,17.5ZM182.9,103.7l.6,21,10.2,19.8.7-46.4-11.5,5.6ZM129,17.4l-3,19.3,9.3-15.9,3.1-17.8-9.4,14.4h0Z"/>
        </g>
      </g>
    </g>
  </g>
</svg>