<?xml version="1.0" encoding="UTF-8"?>
<svg xmlns="http://www.w3.org/2000/svg" version="1.1" viewBox="0 0 33.3 22.7">
  <defs>
    <style>
      .cls-1 {
        fill: #ae7471;
      }

      .cls-2 {
        fill: #875b6a;
        isolation: isolate;
      }

      .cls-3 {
        fill: #ffd5a9;
      }

      .cls-4 {
        fill: #d3936e;
      }

      .cls-5 {
        fill: #f4b771;
      }
    </style>
  </defs>
  <!-- Generator: Adobe Illustrator 28.7.0, SVG Export Plug-In . SVG Version: 1.2.0 Build 136)  -->
  <g>
    <g id="Calque_1">
      <polygon id="back" class="cls-1" points="33.3 21 30.8 11.6 27.5 11.4 14.6 0 7.3 3.3 0 22.7 33.3 21"/>
      <path id="angle" class="cls-4" d="M7.3,3.3l3.3,7.1s12.1,2.3,16.9,1L14.6,0l-7.3,3.3Z"/>
      <polygon id="top" class="cls-5" points="27.5 11.4 19.6 11.6 27.5 13 30.8 11.6 27.5 11.4"/>
      <polygon id="shadow" class="cls-2" points="10.6 10.4 8.4 21 0 22.7 33.3 21 30.8 11.6 27.5 13 26.1 18.9 18.3 20.3 19.6 11.6 10.6 10.4"/>
      <path id="edge" class="cls-3" d="M25.6,12.7h2.9c0,0-1.2,1.3-1.2,1.3l-1.7-1.3ZM10.2,9.5l2.2,1.2-2,1-.2-2.2Z"/>
    </g>
  </g>
</svg>