<?xml version="1.0" encoding="UTF-8"?>
<svg xmlns="http://www.w3.org/2000/svg" version="1.1" viewBox="0 0 50.9 19">
  <defs>
    <style>
      .cls-1 {
        fill: #ae7471;
      }

      .cls-2 {
        fill: #875b6a;
        isolation: isolate;
      }

      .cls-3 {
        fill: #ffd5a9;
      }

      .cls-4 {
        fill: #f4b771;
      }
    </style>
  </defs>
  <!-- Generator: Adobe Illustrator 28.7.0, SVG Export Plug-In . SVG Version: 1.2.0 Build 136)  -->
  <g>
    <g id="Calque_1">
      <polygon id="back" class="cls-1" points="0 15.4 9.7 1.9 15.9 1.4 36.8 0 41.7 3.3 50.9 19 22.7 19 19 16.7 0 15.4"/>
      <path id="top" class="cls-4" d="M9.7,1.9l2.2,3.9,19.4,3.7,10.4-6.2-4.9-3.3s-15.2-.2-27.1,1.9Z"/>
      <path id="shadow" class="cls-2" d="M50.9,19l-9.2-15.7-10.4,6.2.2,7-8.8,2.5M19,16.7l3-9-10.1-1.9-3.7,8.2L0,15.4l18,1.3h1Z"/>
      <polygon id="edge" class="cls-3" points="29.9 9.2 32.9 8.5 31.3 11.3 29.9 9.2"/>
    </g>
  </g>
</svg>