<?xml version="1.0" encoding="UTF-8"?>
<svg id="rock-6" xmlns="http://www.w3.org/2000/svg" version="1.1" viewBox="0 0 42.1 63.8">
  <!-- Generator: Adobe Illustrator 29.4.0, SVG Export Plug-In . SVG Version: 2.1.0 Build 152)  -->
  <defs>
    <style>
      .st0 {
        fill: #a69f9e;
      }

      .st1 {
        fill: #585a5f;
      }

      .st2 {
        display: none;
        fill: #48a6d9;
        isolation: isolate;
        opacity: .2;
      }

      .st3 {
        fill: #bbb1ae;
      }

      .st4 {
        fill: #e4d9d5;
      }
    </style>
  </defs>
  <path id="rock-500" class="st0" d="M0,63.8l4.6-23.1,2-2.7,4.8-24.8L20.3,0s7.9,2.3,11.5,6.6v22.2l3.3,4,7.1,23.4v7.5l-42.2.2h0Z"/>
  <path id="rock-400" class="st3" d="M11.4,13.2l-4.8,24.8,2.4,4.1h8l4.5-9L30.3,5.1s-3.9-3.5-10-5.1c0,0-8.3,10.1-8.9,13.2Z"/>
  <polygon id="rock-800" class="st1" points="17 42.1 17 62.3 14.1 63.8 25 62.9 36.4 56.2 37.3 40.1 35.1 32.8 31.7 34.6 24.9 51.8 24.9 36.1 31.8 28.8 31.8 6.6 30.3 5.1 21.5 33.1 17 42.1"/>
  <path id="rock-200" class="st4" d="M31.8,28.8l-6.9,7.3,6.8-1.5,3.4-1.8s-3.3-4-3.3-4ZM4.6,40.7l4.4,1.4-2.4-4.1s-2,2.7-2,2.7ZM26.2,12.5l4.1-7.4s-3.2-3.9-10-5.1c0,0-8.2,9.2-8.9,13.2l14.8-.7Z"/>
  <path id="rock-fade" class="st2" d="M0,63.8l4.6-23.1,2-2.7,4.8-24.8L20.3,0s7.9,2.3,11.5,6.6v22.2l3.3,4,7.1,23.4v7.5l-42.2.2h0Z"/>
</svg>