<?xml version="1.0" encoding="UTF-8"?>
<svg id="rock-5" xmlns="http://www.w3.org/2000/svg" version="1.1" viewBox="0 0 61.5 59.3">
  <!-- Generator: Adobe Illustrator 29.4.0, SVG Export Plug-In . SVG Version: 2.1.0 Build 152)  -->
  <defs>
    <style>
      .st0 {
        fill: #fbf0eb;
      }

      .st1 {
        fill: #d0c6c3;
      }

      .st2 {
        fill: #a69f9e;
      }

      .st3 {
        fill: #585a5f;
      }

      .st4 {
        display: none;
        fill: #48a6d9;
        isolation: isolate;
        opacity: .2;
      }

      .st5 {
        fill: #bbb1ae;
      }

      .st6 {
        fill: #e4d9d5;
      }
    </style>
  </defs>
  <path id="rock-500" class="st2" d="M0,53.4l8.8-19.9,4.1-2.4L26.1,3.3s8.1-3.3,14.3-2.7l5.5,23.7,4.9.7,2.6,25.3,8.1,3.2v5.9L0,53.4Z"/>
  <path id="rock-400" class="st5" d="M26.1,3.3l-13.2,27.8-4.1,2.4L1.6,49.8l25.3-4.6,4.9-7.5,4.1-3.9,4.4-18.1V.6s-7-1.8-14.3,2.7c0,0,.1,0,.1,0ZM45.9,24.3l-2.6,5.6-1.1,5.9,7-2.6,1.6-8.3s-4.9-.6-4.9-.6Z"/>
  <path id="rock-800" class="st3" d="M40.4,15.7l2.9,14.2,2.6-5.6L40.4.6s0,15.1,0,15.1ZM49.2,33.2l-1,16.6-7.8,2.1,1.8-16.1-6.2-2-4.2,3.9-4.8,7.5,1.5,7.4-10.1,1.3H5l56.5,5.4v-5.9l-7,2.3-23.8-2,20.1-1.1,2.6-2.3-2.6-25.4s-1.6,8.3-1.6,8.3ZM49.2,33.2l-1,16.6,2.6,2.8,2.6-2.3-2.6-25.4s-1.6,8.3-1.6,8.3Z"/>
  <path id="rock-300" class="st1" d="M13,31.1l17.8-3.4,7.9-15.5,1.7-11.5S34.5,0,26.1,3.3l-13.2,27.8h0Z"/>
  <path id="rock-200" class="st6" d="M50.8,52.6l-20.1,1.1s20.5,1.8,23.8,2,7-2.3,7-2.3l-8.1-3.1s-2.6,2.3-2.6,2.3ZM26.1,3.3l12,3.6,2.3.2V.6s-7.5-2.6-14.3,2.7Z"/>
  <path id="rock-100" class="st0" d="M46,34.4l3.7-4-.5,2.8-3.2,1.2ZM33.8,35.8l3.1-6-.9,4s-2.2,2-2.2,2Z"/>
  <path id="rock-fade" class="st4" d="M0,53.4l8.8-19.9,4.1-2.4L26.1,3.3s8.1-3.3,14.3-2.7l5.5,23.7,4.9.7,2.6,25.3,8.1,3.2v5.9L0,53.4Z"/>
</svg>