<?xml version="1.0" encoding="UTF-8"?>
<svg id="skull" xmlns="http://www.w3.org/2000/svg" version="1.1" viewBox="0 0 24 24">
  <defs>
    <style>
      .cls-1 {
        fill: #000;
        stroke-width: 0px;
      }
    </style>
  </defs>
  <path class="cls-1" d="M12,3.2C7.2,3.2,3.2,7,3.2,11.5s.7,3.8,2,5.2v2.2c0,1,.8,1.8,1.8,1.8h10c1,0,1.8-.8,1.8-1.8v-2.3c1.3-1.5,2-3.3,2-5.2,0-4.5-3.9-8.2-8.8-8.2ZM17.5,15.9c-.1.1-.2.3-.2.5v2.5c0,.1-.1.2-.2.2h-2.2v-2.2c0-.4-.3-.8-.8-.8s-.8.3-.8.8v2.2h-2.5v-2.2c0-.4-.3-.8-.8-.8s-.8.3-.8.8v2.2h-2.2c-.1,0-.2-.1-.2-.2v-2.5c0-.2,0-.4-.2-.5-1.2-1.2-1.8-2.8-1.8-4.4,0-3.7,3.3-6.8,7.2-6.8s7.2,3,7.2,6.8-.6,3.2-1.8,4.4ZM10.8,11c0,1-.8,1.8-1.8,1.8s-1.8-.8-1.8-1.8.8-1.8,1.8-1.8,1.8.8,1.8,1.8ZM16.8,11c0,1-.8,1.8-1.8,1.8s-1.8-.8-1.8-1.8.8-1.8,1.8-1.8,1.8.8,1.8,1.8Z"/>
</svg>